<?xml version="1.0" encoding="UTF-8"?>
<svg id="Capa_2" xmlns="http://www.w3.org/2000/svg" viewBox="0 0 1005.66 279.96">
  <defs>
    <style>
      .cls-1 {
        fill: #efdfc4;
      }

      .cls-2 {
        fill: #252729;
      }

      .cls-3 {
        opacity: .5;
      }

      .cls-3, .cls-4 {
        fill: #252629;
      }

      .cls-5 {
        fill: #efdec3;
      }
    </style>
  </defs>
  <g id="Capa_1-2" data-name="Capa_1">
    <g>
      <path class="cls-5" d="M41.9,92.62c-4.39,1.95-8.45,2.92-12.18,2.92-5.69,0-9.95-1.91-12.79-5.72-2.84-3.81-4.26-8.16-4.26-13.03-3.74,0-6.78-1.54-9.14-4.63-2.36-3.08-3.53-7.31-3.53-12.67,0-7.31,2.23-13.48,6.7-18.51,4.46-5.03,10.19-9.17,17.17-12.42,6.98-3.25,14.74-5.6,23.26-7.06,8.53-1.46,16.85-2.19,24.97-2.19s14.86.57,20.7,1.7c5.85,1.14,11.25,2.4,16.2,3.78,4.95,1.38,9.7,2.64,14.25,3.77,4.55,1.14,9.66,1.71,15.35,1.71,3.08,0,6.33-.24,9.74-.73s6.74-1.34,9.99-2.56c3.24-1.22,6.21-2.88,8.89-4.99,2.68-2.11,4.91-4.79,6.7-8.04,2.27,1.63,4.34,3.62,6.21,5.97,1.86,2.36,2.8,5.16,2.8,8.4,0,1.3-.2,2.68-.61,4.14-.41,1.46-1.22,2.8-2.44,4.02-1.22,1.22-2.88,2.23-4.99,3.04-2.11.81-4.87,1.22-8.28,1.22,0,4.71-1.42,8.2-4.26,10.48-2.84,2.28-6.7,3.41-11.57,3.41-5.2,0-10.52-1.1-15.96-3.29-5.44-2.19-11.33-4.59-17.66-7.19-6.33-2.6-13.32-4.99-20.95-7.19-7.63-2.19-16.16-3.29-25.58-3.29-6.33,0-12.3.65-17.9,1.95-5.6,1.3-10.56,3.33-14.86,6.09-4.31,2.76-7.68,6.42-10.11,10.96-2.44,4.55-3.65,10.07-3.65,16.56,0,7.96,1.7,13.6,5.12,16.93,3.41,3.33,7.63,4.99,12.67,4.99v1.46ZM76.73,82.88c0-24.85,12.02-37.27,36.05-37.27v2.19c-2.92,0-5.32.49-7.19,1.46s-3.29,2.31-4.26,4.02-1.67,3.62-2.07,5.72c-.41,2.11-.61,4.39-.61,6.82v126.19c0,3.9.77,6.98,2.31,9.26,1.54,2.28,3.41,3.94,5.6,4.99,2.19,1.06,4.55,1.75,7.06,2.07,2.52.33,4.75.49,6.7.49v10.23c-1.95,0-4.39-.12-7.31-.37-2.92-.24-5.93-.53-9.01-.85-3.09-.32-6.09-.61-9.01-.85-2.92-.24-5.36-.37-7.31-.37s-4.38.12-7.31.37c-2.92.24-5.93.53-9.01.85-3.09.33-6.09.61-9.01.85-2.92.24-5.36.37-7.31.37v-10.23c2.11,0,4.47-.16,7.06-.49,2.6-.32,4.96-1.01,7.07-2.07,2.11-1.06,3.9-2.72,5.36-4.99,1.46-2.27,2.19-5.36,2.19-9.26v-109.13Z"/>
      <path class="cls-5" d="M190.99,194.94c0,3.25.53,5.93,1.58,8.04,1.06,2.11,2.35,3.82,3.9,5.11,1.54,1.3,3.33,2.24,5.36,2.8,2.03.57,4.02.85,5.97.85v7.31c-1.95,0-4.1-.12-6.46-.37-2.35-.24-4.83-.53-7.43-.85-2.6-.32-5.08-.61-7.43-.85-2.36-.24-4.51-.37-6.45-.37s-4.1.12-6.46.37c-2.36.24-4.84.53-7.43.85-2.6.33-5.08.61-7.43.85-2.36.24-4.51.37-6.46.37v-7.31c4.39,0,8.28-1.22,11.69-3.65,3.41-2.44,5.12-6.82,5.12-13.15v-40.68c0-6.01-.13-11-.37-14.98-.24-3.98-.94-7.06-2.07-9.26s-2.76-3.73-4.87-4.63c-2.11-.89-5.04-1.34-8.77-1.34v-6.09c4.06,0,7.59-.24,10.59-.73s5.73-1.22,8.16-2.19c2.44-.97,4.67-2.11,6.7-3.41,2.03-1.3,4.18-2.68,6.46-4.14h6.09v25.34c3.9-9.58,8.56-16.6,14.01-21.07,5.44-4.47,11-6.7,16.69-6.7,3.57,0,6.82.57,9.74,1.7,2.92,1.14,4.38,3.09,4.38,5.85,3.25,0,5.81,1.06,7.68,3.17,1.86,2.11,2.8,5.04,2.8,8.77,0,4.23-1.46,7.92-4.39,11.08-2.92,3.17-7.79,5.4-14.62,6.7.65-2.44.98-4.87.98-7.31,0-5.85-1.34-10.15-4.02-12.91-2.68-2.76-5.65-4.14-8.89-4.14-2.6,0-5.32,1.34-8.16,4.02s-5.48,6.38-7.92,11.08c-2.44,4.71-4.43,10.19-5.97,16.44-1.55,6.25-2.32,13.03-2.32,20.34v25.09Z"/>
      <path class="cls-5" d="M346.64,155.47c0-6.01-.12-11-.36-14.98-.24-3.98-.94-7.06-2.07-9.26-1.14-2.19-2.77-3.73-4.87-4.63-2.11-.89-5.04-1.34-8.77-1.34v-7.31c4.06,0,7.51-.24,10.35-.73,2.84-.49,5.4-1.22,7.67-2.19s4.39-2.11,6.33-3.41c1.95-1.3,4.06-2.68,6.33-4.14h7.31v86.48c0,3.25.53,5.93,1.58,8.04,1.05,2.11,2.35,3.82,3.9,5.12,1.55,1.3,3.33,2.23,5.36,2.8,2.03.57,4.02.85,5.97.85v8.53c-3.74-.49-6.94-.93-9.62-1.34-2.68-.4-6.05-.61-10.11-.61-5.52,0-11.05.57-16.56,1.7l-2.44-2.44v-13.64c-1.79,2.76-3.61,5.32-5.48,7.67-1.87,2.36-4.1,4.38-6.7,6.09-2.6,1.7-5.6,3.08-9.01,4.14-3.41,1.05-7.47,1.58-12.18,1.58-16.24,0-27.85-4.99-34.84-14.98s-10.64-24.48-10.96-43.48c-.16-8.77-.36-15.71-.61-20.83-.24-5.11-.85-9.01-1.82-11.69-.98-2.68-2.52-4.39-4.63-5.12-2.11-.73-5.11-1.1-9.01-1.1v-7.31c4.06,0,7.51-.24,10.35-.73s5.4-1.22,7.67-2.19,4.39-2.11,6.34-3.41c1.95-1.3,4.06-2.68,6.33-4.14h7.31v51.4c0,9.91.65,18.19,1.95,24.85,1.3,6.66,3.13,12.02,5.48,16.08,2.35,4.06,5.15,6.94,8.4,8.65,3.25,1.7,6.82,2.56,10.72,2.56,4.55,0,8.73-1.18,12.55-3.53,3.81-2.35,7.06-5.64,9.74-9.87,2.68-4.22,4.75-9.22,6.21-14.98,1.46-5.76,2.19-11.97,2.19-18.63v-8.53Z"/>
      <path class="cls-5" d="M455.05,222.46c-8.77,0-16.48-1.46-23.14-4.38-6.66-2.92-12.26-7.02-16.81-12.3-4.55-5.28-7.96-11.57-10.23-18.88-2.28-7.31-3.41-15.35-3.41-24.12,0-10.23,1.58-18.96,4.75-26.19,3.17-7.22,7.31-13.19,12.42-17.9,5.11-4.71,10.96-8.16,17.54-10.35,6.58-2.19,13.28-3.29,20.1-3.29,7.31,0,13.6,1.18,18.88,3.53,5.27,2.36,10.43,6.62,15.47,12.79.97-3.41,2.51-6.09,4.63-8.04,2.11-1.95,4.55-3.33,7.31-4.14,2.76-.81,5.68-1.3,8.77-1.46,3.09-.16,6.09-.24,9.01-.24v7.31c-2.11,0-3.86.45-5.24,1.34-1.38.89-2.44,3.25-3.17,7.06-.73,3.82-1.22,9.5-1.46,17.05-.24,7.55-.36,17.99-.36,31.3v84.29c0,3.25.52,5.93,1.58,8.04,1.05,2.11,2.35,3.81,3.9,5.11,1.54,1.3,3.33,2.23,5.36,2.8,2.03.57,4.02.85,5.97.85v7.31c-1.95,0-4.1-.12-6.46-.37-2.36-.24-4.83-.53-7.43-.85-2.6-.33-5.08-.61-7.43-.85-2.36-.24-4.51-.37-6.46-.37s-4.1.12-6.46.37c-2.36.24-4.83.53-7.43.85-2.6.32-5.08.61-7.43.85-2.36.24-4.51.37-6.46.37v-7.31c4.38,0,8.28-1.22,11.69-3.65,3.41-2.44,5.11-6.82,5.11-13.15v-45.55c-5.36,4.87-10.92,8.12-16.69,9.74-5.77,1.62-11.25,2.44-16.44,2.44ZM456.27,211.26c5.52,0,10.39-1.26,14.62-3.77,4.22-2.52,7.67-5.97,10.35-10.35,2.68-4.38,4.71-9.46,6.09-15.23,1.38-5.76,2.07-11.97,2.07-18.63s-.65-12.3-1.95-17.9c-1.3-5.6-3.33-10.55-6.09-14.86-2.76-4.3-6.21-7.67-10.35-10.11-4.14-2.44-9.13-3.65-14.98-3.65s-10.8,1.18-14.86,3.53c-4.06,2.36-7.31,5.6-9.74,9.74-2.44,4.14-4.18,9.01-5.24,14.62-1.06,5.6-1.58,11.66-1.58,18.15s.49,12.42,1.46,18.27c.97,5.85,2.68,11,5.11,15.47,2.44,4.47,5.68,8.04,9.74,10.72,4.06,2.68,9.18,4.02,15.35,4.02Z"/>
      <path class="cls-5" d="M577.82,194.94c0,3.25.53,5.93,1.59,8.04,1.05,2.11,2.35,3.82,3.9,5.11,1.54,1.3,3.33,2.24,5.36,2.8,2.03.57,4.02.85,5.97.85v7.31c-1.95,0-4.1-.12-6.46-.37-2.36-.24-4.84-.53-7.43-.85-2.6-.32-5.08-.61-7.43-.85-2.36-.24-4.51-.37-6.46-.37s-4.1.12-6.46.37c-2.35.24-4.83.53-7.43.85-2.6.33-5.08.61-7.43.85-2.36.24-4.51.37-6.45.37v-7.31c4.38,0,8.28-1.22,11.69-3.65,3.41-2.44,5.11-6.82,5.11-13.15v-41.9c0-6.01-.12-11-.36-14.98-.24-3.98-.94-7.06-2.07-9.26-1.14-2.19-2.76-3.74-4.87-4.63-2.11-.89-5.04-1.34-8.77-1.34v-7.31c4.06,0,7.51-.24,10.35-.73s5.4-1.22,7.67-2.19,4.39-2.11,6.34-3.41c1.95-1.3,4.06-2.68,6.33-4.14h7.31v89.89ZM550.3,69c0-4.87,1.7-8.97,5.11-12.3,3.41-3.33,7.47-4.99,12.18-4.99s8.73,1.67,12.06,4.99c3.33,3.33,4.99,7.43,4.99,12.3s-1.67,8.98-4.99,12.3-7.35,4.99-12.06,4.99-8.77-1.66-12.18-4.99c-3.41-3.33-5.11-7.43-5.11-12.3Z"/>
      <path class="cls-5" d="M645.79,192.5c0,8.45.44,15.27,1.34,20.46.89,5.2,2.07,9.22,3.53,12.06,1.46,2.84,3.13,4.75,5,5.72,1.86.97,3.77,1.46,5.72,1.46,2.27,0,4.18-.24,5.73-.73,1.54-.49,2.96-1.14,4.26-1.95l2.44,2.19c-1.79,4.22-4.18,7.34-7.18,9.38-3.01,2.03-6.38,3.04-10.11,3.04-4.71,0-8.65-.97-11.82-2.92-3.17-1.95-4.75-4.55-4.75-7.79-6.66,0-11-2.84-13.03-8.53-2.04-5.69-3.05-14.05-3.05-25.09v-80.88h-16.08v-11.45h1.46c4.39,0,8.16-1.01,11.33-3.04,3.17-2.03,5.92-4.67,8.28-7.92,2.35-3.25,4.38-6.94,6.09-11.09,1.71-4.14,3.29-8.32,4.75-12.55h6.09v34.59c5.84-.16,10.68-.61,14.49-1.34,3.82-.73,6.61-1.99,8.41-3.77,3.73.65,6.17,1.99,7.31,4.02,1.13,2.03,1.7,3.77,1.7,5.24,0,1.95-.61,3.62-1.83,4.99-1.22,1.38-2.84,2.48-4.87,3.29-2.03.81-4.34,1.38-6.94,1.71-2.6.33-5.2.49-7.79.49-3.58,0-7.06-.24-10.47-.73v71.13Z"/>
      <path class="cls-5" d="M743.22,222.46c-8.12,0-15.63-1.42-22.53-4.26-6.9-2.84-12.95-6.86-18.15-12.06-5.2-5.2-9.26-11.45-12.18-18.76-2.93-7.31-4.39-15.51-4.39-24.6s1.46-17.46,4.39-24.6c2.92-7.15,6.98-13.19,12.18-18.15,5.19-4.95,11.24-8.69,18.15-11.21,6.9-2.52,14.41-3.77,22.53-3.77s15.43,1.26,22.41,3.77c6.98,2.52,13.07,6.25,18.27,11.21,5.2,4.96,9.25,11,12.18,18.15,2.92,7.15,4.38,15.35,4.38,24.6s-1.46,17.54-4.38,24.85c-2.93,7.31-6.98,13.56-12.18,18.76-5.2,5.2-11.29,9.18-18.27,11.94-6.98,2.76-14.46,4.14-22.41,4.14ZM743.47,211.26c6.01,0,11.12-1.3,15.35-3.9,4.22-2.6,7.71-6.13,10.48-10.6,2.76-4.47,4.78-9.62,6.09-15.47,1.3-5.85,1.95-12.02,1.95-18.51s-.65-12.34-1.95-18.03c-1.3-5.68-3.33-10.6-6.09-14.74-2.77-4.14-6.3-7.43-10.6-9.87-4.31-2.44-9.46-3.65-15.47-3.65s-11.17,1.18-15.47,3.53c-4.3,2.36-7.84,5.6-10.59,9.74-2.77,4.14-4.79,9.06-6.09,14.74-1.3,5.69-1.95,11.78-1.95,18.27s.65,12.67,1.95,18.51c1.3,5.85,3.37,11,6.21,15.47,2.84,4.47,6.42,8,10.72,10.6,4.3,2.6,9.46,3.9,15.47,3.9Z"/>
    </g>
    <g>
      <g>
        <path class="cls-3" d="M854.93,158.51l123.29-75.66c1.1-.68,1.88-1.75,2.18-3.01.3-1.26.09-2.56-.58-3.67L934.49,2.32c-.68-1.1-1.75-1.88-3.01-2.18-1.26-.3-2.56-.09-3.67.58l-123.29,75.66c-1.1.68-1.88,1.75-2.18,3.01-.3,1.26-.09,2.56.58,3.67l45.33,73.86c.11.18.23.35.36.51.67.83,1.59,1.42,2.64,1.67,1.26.3,2.56.09,3.67-.58Z"/>
        <path class="cls-1" d="M859.55,159.54l123.29-75.66c2.28-1.4,3-4.39,1.6-6.67L939.11,3.35c-.68-1.11-1.75-1.88-3.01-2.18-1.26-.3-2.56-.09-3.67.58l-123.29,75.66c-2.28,1.4-3,4.39-1.6,6.67l45.33,73.86c.11.18.23.35.36.51,1.51,1.87,4.21,2.38,6.32,1.09Z"/>
        <path class="cls-4" d="M853.89,153.59c-.15-.19-.3-.39-.43-.61l-41.22-67.18c-.81-1.32-1.06-2.88-.7-4.39.36-1.51,1.29-2.79,2.61-3.6L930.53,6.4c2.73-1.68,6.32-.82,7.99,1.91l41.22,67.18c.81,1.32,1.06,2.88.7,4.39-.36,1.51-1.29,2.79-2.61,3.6l-116.38,71.42c-2.52,1.54-5.76.94-7.57-1.31ZM937.39,8.27c-1.52-1.89-4.26-2.41-6.39-1.1l-116.38,71.42c-1.12.69-1.9,1.76-2.2,3.04s-.1,2.59.59,3.71l41.22,67.18c1.42,2.3,4.44,3.03,6.75,1.61l116.38-71.42c1.12-.69,1.9-1.76,2.2-3.04.31-1.27.1-2.59-.59-3.71l-41.22-67.18c-.11-.18-.23-.35-.36-.51Z"/>
        <path class="cls-2" d="M935.09,16.76c.06.19.12.4.16.63.04.19.09.36.13.5.04.14.11.28.19.41.16.26.41.5.74.73l-.47.29c-1.16-.27-2.36-.21-3.61.16-1.25.38-2.44.91-3.56,1.59l-.68-1.11c.47-.29,1.12-.54,1.95-.76.83-.22,1.72-.37,2.68-.45.95-.08,1.84-.05,2.66.08-.08-.09-.15-.18-.2-.26-.1-.17-.16-.33-.19-.48-.02-.16-.03-.36-.03-.6,0-.27,0-.5-.04-.69-.03-.2-.11-.4-.25-.62-.12-.19-.27-.32-.45-.38-.18-.06-.37-.08-.55-.04-.18.03-.34.09-.46.16-.24.15-.37.32-.38.53-.01.2.03.4.14.57.04.07.07.11.09.13-.1.06-.23.11-.39.13-.16.03-.33.02-.5-.04-.17-.06-.31-.17-.42-.35-.17-.28-.22-.57-.13-.86.08-.29.28-.53.59-.72.21-.13.47-.21.8-.23.32-.03.66.04,1,.2.35.16.65.46.91.87.13.21.22.41.29.6Z"/>
        <path class="cls-2" d="M856.87,144.3c-.06-.19-.12-.4-.16-.63-.04-.19-.09-.36-.13-.5-.04-.14-.11-.28-.19-.41-.16-.26-.41-.5-.74-.73l.47-.29c1.16.27,2.36.21,3.61-.16,1.25-.38,2.44-.91,3.56-1.59l.68,1.11c-.47.29-1.12.54-1.95.76-.83.22-1.72.37-2.68.45-.95.08-1.84.05-2.66-.08.08.09.15.18.2.26.1.17.16.33.19.48.02.16.03.36.03.6,0,.27,0,.5.04.69.03.2.11.4.25.62.12.19.27.32.45.38.18.06.37.08.55.04.18-.03.34-.09.46-.16.24-.15.37-.32.38-.53.01-.2-.03-.4-.14-.57-.04-.07-.07-.11-.09-.13.1-.06.23-.11.39-.13.16-.03.33-.02.5.04.17.06.31.17.42.35.17.28.22.57.13.86-.08.29-.28.53-.59.72-.21.13-.47.21-.8.23-.32.03-.66-.04-1-.2-.35-.16-.65-.46-.91-.87-.13-.21-.22-.41-.29-.6Z"/>
        <g>
          <g>
            <g>
              <path class="cls-2" d="M908.47,45.77c0-.19.08-.29.3-.19.68.29,1.1.09,1.32-.61.07-.24.28-.32.44-.14.1.11.13.3.17.46.03.12.03.24.04.37.03,0,.05,0,.08,0,.16-.27.17-.56.08-.85-.28-.91-1.29-1.26-2.2-.77-.84.46-1.01,1.85-.29,2.48.12.11.26.23.49.11-.07-.07-.11-.14-.17-.18-.25-.17-.27-.42-.26-.67Z"/>
              <path class="cls-2" d="M898.5,51.52c-.34-.41-.97-.54-1.46-.33-.49.21-.81.75-.79,1.28.01.37.19.72.46.98.12.11.26.21.41.27.06.02.41.02.48.03,0,0,0,0,.01,0-.18-.23-.51-.35-.6-.62-.07-.19,0-.41.14-.56.13-.15.32-.24.5-.32.24-.09.56-.14.73.07.19.24,0,.6.08.89,0,.03.02.07.06.08.04.01.08-.03.1-.07.28-.53.29-1.24-.1-1.7Z"/>
              <path class="cls-2" d="M895.89,48.81c-.16-.25-.46-.36-.64-.24-.23.15-.28.51-.11.78.15.24.46.38.64.27.22-.12.28-.56.11-.81Z"/>
              <path class="cls-2" d="M899.35,55.83c.09.17.46.27.63.18.19-.1.28-.42.18-.62-.12-.24-.4-.32-.65-.19-.22.12-.29.38-.16.63Z"/>
              <path class="cls-2" d="M894.81,54.55c-.14-.24-.47-.35-.68-.23-.24.14-.33.47-.19.7.16.27.54.39.77.24.19-.12.24-.48.1-.72Z"/>
              <path class="cls-2" d="M914.78,53.38c0-.22-.09-.44-.13-.66-.01-.09,0-.23.05-.28.57-.54.92-1.21,1.26-1.89.52-1.05.67-2.14.26-3.27-.14-.39-.33-.76-.52-1.14-.1-.2-.09-.31.12-.44.56-.35,1.1-.73,1.67-1.08,6.55-4.05,13.11-8.09,19.66-12.13.41-.25.82-.5,1.22-.77.11-.07.19-.24.21-.37.07-.46.07-.92.15-1.37.16-.85.35-1.7.54-2.57-.08-.03-.17-.06-.25-.08-1.18-.35-2.37-.7-3.55-1.07-.15-.05-.31-.03-.45.05-7.43,4.46-14.87,8.93-22.31,13.38-.55.33-.45.41-.8-.22-1.2-2.16-3.23-3.17-5.66-2.82-.24.04-.4.02-.53-.23-.11-.2-.28-.4-.57-.32-.3.09-.52.36-.46.66.09.41-.11.66-.36.9-.66.65-1.12,1.43-1.38,2.31-.47,1.57-.26,3.05.7,4.39.34.46.36.45-.08.82,0,0-.01.01-.02.02-1.75,1.37-3.25,2.97-4.53,4.77-.09.13-.32.25-.47.24-.45-.02-.89-.11-1.36-.17.14-.54.27-1.12,0-1.67-.28-.57-.8-.87-1.39-1-.78-.18-1.66.36-1.88,1.09-.15.5-.1.98.11,1.46.29.66.88.91,1.53,1.07-.06.15-.11.27-.15.4-.15.46-.34.92-.19,1.43.13.45.09.5-.37.39-.79-.18-1.59.15-1.97.82-.37.65-.22,1.51.36,2.11.74.59,1.61.38,1.89.25.69-.3.92-.88.99-1.57,0-.06.01-.11.02-.16,0-.07.08-.11.14-.09.59.16,1.15.31,1.7.46.02.28-.01.63.08.94.27.87,1.07,1.38,1.99,1.35.55-.02.95-.27,1.2-.75.29-.57.31-1.15,0-1.72-.31-.58-.78-.95-1.47-1.04.07-.33.13-.64.19-.96.29-.03.54-.05.79-.08,1.63-.19,3.26-.4,4.79-1.05.58-.25,1.17-.49,1.76-.73.15-.06.25-.05.35.12.61,1.03,1.34,1.92,2.61,2.15.2.04.39.08.58.14.83.26,1.65.18,2.47-.03.09-.02.22.05.31.11.06.04.09.14.14.2.17.22.4.29.65.23.25-.07.38-.27.37-.51ZM894.53,49.89c-.41-.67-.34-1.56.16-1.88.71-.45,1.57-.28,1.99.39.43.69.23,1.47-.5,1.91-.57.35-1.29.16-1.65-.42ZM906.2,46.89c.04.11.11.21.18.3.11.14.23.16.36,0,.13-.15.26-.3.4-.44.04-.04.14-.08.19-.06.05.02.09.11.1.17.08.61-.44,1.12-1.05,1.03-.05,0-.11-.02-.15-.05-.39-.22-.74-1.05-.63-1.48.05-.19.15-.33.37-.33.25,0,.51-.02.76-.01.1,0,.2.05.3.08,0,.04,0,.08.01.12-.2.07-.39.15-.6.2-.27.07-.35.19-.24.45ZM907.57,47.49c.06-.11.21-.26.29-.24.2.04.41.16.4.41-.01.23-.05.47-.14.68-.12.28-.51.28-.71-.02,0-.07-.05-.2-.02-.32.04-.17.1-.35.19-.5ZM908.5,48.02c0-.09.03-.19.11-.22,0,0,.02,0,.03,0,.04,0,.08,0,.12,0,.17.02.34.05.51.07.03,0,.07.01.1.04.05.05.02.13,0,.2-.08.31.14.64.43.78.29.14.63.11.94.03.41-.11.8-.34,1.04-.7.24-.35.3-.84.09-1.21-.09-.16-.24-.31-.22-.5,0-.11.08-.21.15-.29.09-.09.2-.16.32-.18.24-.02.44.18.55.39.16.3.22.65.23.99.02.39-.02.79-.21,1.13-.2.37-.55.64-.92.85-.66.36-1.51.58-2.24.29-.65-.25-1.08-.96-1.03-1.65ZM911.55,47.04c.06.03.07.09.08.15.05.38-.1.78-.39,1.03-.05.04-.11.09-.18.12-.36.2-.9.29-1.12-.1-.05-.09-.07-.2-.02-.3.05-.1.15-.16.24-.22.4-.23.8-.45,1.21-.67.05-.03.12-.06.17-.03ZM909.48,47.2c-.88.19-2-.59-2.17-1.48-.16-.87.27-1.74,1.21-2.31.44-.26,1.02-.4,1.66-.27,1.27.26,1.85,1.44,1.26,2.59-.41.8-1.09,1.27-1.96,1.46ZM906.62,45.72c-.23.02-.47.04-.7.06-.24.03-.31-.04-.29-.29.05-.51.19-.61.68-.46.18.06.36.15.47.19.18.31.1.47-.16.49ZM914.37,42.82c-.12.61-.2,1.23-.36,1.83-.1.4-.51.44-.85.45-.29,0-.59-.09-.87-.16-.06-.02-.11-.15-.14-.24-.02-.04.02-.1.03-.16.11-.46.11-.47.56-.38.27.05.48,0,.58-.29.08-.25.17-.49.26-.74.06-.16-.01-.26-.17-.3-.32-.08-.65-.16-.97-.24-.2-.05-.3.05-.35.23-.04.16-.09.31-.14.49-.15-.03-.27-.04-.38-.07-.36-.09-.48-.29-.46-.66.03-.78.72-1.08,1.24-.91.56.18,1.12.37,1.67.56.28.09.42.28.36.58ZM921.62,35.33c4.16-2.48,8.32-4.96,12.48-7.44.37-.22.74-.43,1.11-.63.1-.06.25-.1.36-.08.68.17,1.35.35,2.02.54.05.01.09.05.19.11-.14.1-.24.18-.34.25-5.22,3.2-10.43,6.4-15.65,9.6-2.22,1.36-4.45,2.7-6.67,4.05-.21.13-.41.17-.64.09-.21-.07-.41-.14-.62-.2-.52-.16-1.03-.32-1.55-.49-.05-.02-.1-.04-.22-.08.2-.12.35-.21.5-.31,3.01-1.8,6.02-3.61,9.03-5.41ZM905.16,44.61c-.34-.02-.63-.15-.85-.42-.56-.69-.92-1.49-.95-2.36-.05-1.21.2-2.36,1.27-3.13.51-.37,1.06-.69,1.61-1.01.66-.37,1.37-.34,2.09-.21,1.02.18,1.94.56,2.58,1.41.41.55.71,1.16.8,1.85.02.17.07.4-.15.47-.22.06-.27-.17-.34-.31-.17-.35-.31-.71-.49-1.06-.66-1.32-1.86-1.95-3.33-1.76-1.95.25-3.36,1.79-3.36,3.66,0,.54.14,1.06.36,1.55.01.03.02.06.04.09,0,0,0,0,0,.01.04.08.08.17.12.25.02.03.04.06.07.09.41.62.89.78.89.78-.15.05-.26.11-.36.11ZM906.05,44.44c-.29-.32-.45-.74-.47-1.17-.02-.61.23-1.2.63-1.66.32-.36.73-.65,1.2-.77.46-.13.96-.1,1.41.04.46.14.88.38,1.26.67.15.11.3.24.39.41.09.17.1.39-.01.54-.14.2-.45.21-.67.1-.22-.11-.37-.31-.52-.51-.15-.19-.3-.4-.53-.5-.3-.14-.65-.08-.95.05-.63.27-1.13.81-1.34,1.46-.04.12-.07.25-.03.36.06.18.26.26.4.38.08.07.14.16.17.26.04.12.04.24,0,.36-.06.18-.29.37-.5.32-.16-.04-.35-.25-.45-.36ZM906.9,43.07c.02-.16.12-.3.21-.42.22-.28.5-.54.85-.64s.77,0,.96.3c.03.05.06.1.04.16-.01.03-.04.06-.06.08-.16.15-.35.27-.53.38-.07.04-.13.08-.2.12-.15.09-.31.19-.46.28-.3.18-.9.3-.81-.26ZM900.1,49.65s0,.02.01.04c.41-.54.97-1.23,1.48-1.75.02-.03.05-.06.07-.09.01-.02.11-.11.24-.22,0,0,0,0,0,0,.59-.54,1.51-1.44,2.34-2.03,0-.03.67-.51,1.13-.56,0,0-.16,1.93.16,2.47,0,0,0,0,0,0l-.14.1s0,0,0,0l-.3.21s0,0,0,0l-1.25.87s0,0,0,0l-.47.33s0,0,0,0l-.54.38s0,0,0,0l-.32.22s0,0,0,0l-1.26.87s0,0,0,0l-.26.18s0,0,0,0l-.53.37s0,0,0,0l-.33.23s0,0,0,0l-.32.22h0s0-.01,0-.01c-.13-.21-.24-.4-.36-.6,0,0-.06,0-.03-.12,0-.03,0-.06.02-.08.03-.04.06-.09.09-.13.02-.03.04-.06.06-.09.02-.03.04-.06.06-.09.16-.24.32-.48.49-.71ZM895.08,55.78c-.58.36-1.4.37-1.82-.35-.29-.5-.09-1.37.42-1.7.52-.33,1.43-.14,1.75.37.35.56.19,1.34-.35,1.68ZM900.84,54.86c.35.59.15,1.49-.41,1.84-.58.36-1.45.09-1.85-.57-.37-.44-.11-1.3.48-1.66.59-.35,1.45-.17,1.78.38ZM899.1,53.79c-.2.38-.59.53-.98.61-1,.2-2.43-.43-2.48-1.94-.03-.94,1.03-2.19,2.36-1.89.26.06.54.12.77.26.17.1.27.32.4.49.58.84.37,1.66-.06,2.47ZM908.4,51.16c-.35-.51-.63-1.03-.78-1.63-.04-.15-.05-.31-.04-.46.02-.19.18-.3.35-.26.12.03.3.16.31.26.07.68.27,1.29.79,1.76.62.57,1.36.88,2.19.99,2.03.27,3.4-1.28,3.73-2.76.21-.92.06-1.74-.49-2.49-.26-.36-.52-.71-.78-1.07.36-.18.61-.17.87.12,1.01,1.1,1.5,2.5.88,4.03-.42,1.04-1.1,1.86-2.07,2.48-1.29.82-3.87.63-4.97-.97Z"/>
            </g>
            <g>
              <path class="cls-2" d="M935.43,56.48c0,.19-.08.29-.3.19-.68-.29-1.1-.09-1.32.61-.07.24-.28.32-.44.14-.1-.11-.13-.3-.17-.46-.03-.12-.03-.24-.04-.37-.03,0-.05,0-.08,0-.16.27-.17.56-.08.85.28.91,1.29,1.26,2.2.77.84-.46,1.01-1.85.29-2.48-.12-.11-.26-.23-.49-.11.07.07.11.14.17.18.25.17.27.42.26.67Z"/>
              <path class="cls-2" d="M945.4,50.72c.34.41.97.54,1.46.33.49-.21.81-.75.79-1.28-.01-.37-.19-.72-.46-.98-.12-.11-.26-.21-.41-.27-.06-.02-.41-.02-.48-.03,0,0,0,0-.01,0,.18.23.51.35.6.62.07.19,0,.41-.14.56-.13.15-.32.24-.5.32-.24.09-.56.14-.73-.07-.19-.24,0-.6-.08-.89,0-.03-.02-.07-.06-.08-.04-.01-.08.03-.1.07-.28.53-.29,1.24.1,1.7Z"/>
              <path class="cls-2" d="M948.01,53.44c.16.25.46.36.64.24.23-.15.28-.51.11-.78-.15-.24-.46-.38-.64-.27-.22.12-.28.56-.11.81Z"/>
              <path class="cls-2" d="M944.56,46.41c-.09-.17-.46-.27-.63-.18-.19.1-.28.42-.18.62.12.24.4.32.65.19.22-.12.29-.38.16-.63Z"/>
              <path class="cls-2" d="M949.1,47.7c.14.24.47.35.68.23.24-.14.33-.47.19-.7-.16-.27-.54-.39-.77-.24-.19.12-.24.48-.1.72Z"/>
              <path class="cls-2" d="M929.13,48.87c0,.22.09.44.13.66.01.09,0,.23-.05.28-.57.54-.92,1.21-1.26,1.89-.52,1.05-.67,2.14-.26,3.27.14.39.33.76.52,1.14.1.2.09.31-.12.44-.56.35-1.1.73-1.67,1.08-6.55,4.05-13.11,8.09-19.66,12.13-.41.25-.82.5-1.22.77-.11.07-.19.24-.21.37-.07.46-.07.92-.15,1.37-.16.85-.35,1.7-.54,2.57.08.03.17.06.25.08,1.18.35,2.37.7,3.55,1.07.15.05.31.03.45-.05,7.43-4.46,14.87-8.93,22.31-13.38.55-.33.45-.41.8.22,1.2,2.16,3.23,3.17,5.66,2.82.24-.04.4-.02.53.23.11.2.28.4.57.32.3-.09.52-.36.46-.66-.09-.41.11-.66.36-.9.66-.65,1.12-1.43,1.38-2.31.47-1.57.26-3.05-.7-4.39-.34-.46-.36-.45.08-.82,0,0,.01-.01.02-.02,1.75-1.37,3.25-2.97,4.53-4.77.09-.13.32-.25.47-.24.45.02.89.11,1.36.17-.14.54-.27,1.12,0,1.67.28.57.8.87,1.39,1,.78.18,1.66-.36,1.88-1.09.15-.5.1-.98-.11-1.46-.29-.66-.88-.91-1.53-1.07.06-.15.11-.27.15-.4.15-.46.34-.92.19-1.43-.13-.45-.09-.5.37-.39.79.18,1.59-.15,1.97-.82.37-.65.22-1.51-.36-2.11-.74-.59-1.61-.38-1.89-.25-.69.3-.92.88-.99,1.57,0,.06-.01.11-.02.16,0,.07-.08.11-.14.09-.59-.16-1.15-.31-1.7-.46-.02-.28.01-.63-.08-.94-.27-.87-1.07-1.38-1.99-1.35-.55.02-.95.27-1.2.75-.29.57-.31,1.15,0,1.72.31.58.78.95,1.47,1.04-.07.33-.13.64-.19.96-.29.03-.54.05-.79.08-1.63.19-3.26.4-4.79,1.05-.58.25-1.17.49-1.76.73-.15.06-.25.05-.35-.12-.61-1.03-1.34-1.92-2.61-2.15-.2-.04-.39-.08-.58-.14-.83-.26-1.65-.18-2.47.03-.09.02-.22-.05-.31-.11-.06-.04-.09-.14-.14-.2-.17-.22-.4-.29-.65-.23-.25.07-.38.27-.37.51ZM949.38,52.35c.41.67.34,1.56-.16,1.88-.71.45-1.57.28-1.99-.39-.43-.69-.23-1.47.5-1.91.57-.35,1.29-.16,1.65.42ZM937.71,55.35c-.04-.11-.11-.21-.18-.3-.11-.14-.23-.16-.36,0-.13.15-.26.3-.4.44-.04.04-.14.08-.19.06-.05-.02-.09-.11-.1-.17-.08-.61.44-1.12,1.05-1.03.05,0,.11.02.15.05.39.22.74,1.05.63,1.48-.05.19-.15.33-.37.33-.25,0-.51.02-.76.01-.1,0-.2-.05-.3-.08,0-.04,0-.08-.01-.12.2-.07.39-.15.6-.2.27-.07.35-.19.24-.45ZM936.34,54.76c-.06.11-.21.26-.29.24-.2-.04-.41-.16-.4-.41.01-.23.05-.47.14-.68.12-.28.51-.28.71.02,0,.07.05.2.02.32-.04.17-.1.35-.19.5ZM935.41,54.23c0,.09-.03.19-.11.22,0,0-.02,0-.03,0-.04,0-.08,0-.12,0-.17-.02-.34-.05-.51-.07-.03,0-.07-.01-.1-.04-.05-.05-.02-.13,0-.2.08-.31-.14-.64-.43-.78-.29-.14-.63-.11-.94-.03-.41.11-.8.34-1.04.7-.24.35-.3.84-.09,1.21.09.16.24.31.22.5,0,.11-.08.21-.15.29-.09.09-.2.16-.32.18-.24.02-.44-.18-.55-.39-.16-.3-.22-.65-.23-.99-.02-.39.02-.79.21-1.13.2-.37.55-.64.92-.85.66-.36,1.51-.58,2.24-.29.65.25,1.08.96,1.03,1.65ZM932.36,55.21c-.06-.03-.07-.09-.08-.15-.05-.38.1-.78.39-1.03.05-.04.11-.09.18-.12.36-.2.9-.29,1.12.1.05.09.07.2.02.3-.05.1-.15.16-.24.22-.4.23-.8.45-1.21.67-.05.03-.12.06-.17.03ZM934.42,55.05c.88-.19,2,.59,2.17,1.48.16.87-.27,1.74-1.21,2.31-.44.26-1.02.4-1.66.27-1.27-.26-1.85-1.44-1.26-2.59.41-.8,1.09-1.27,1.96-1.46ZM937.28,56.53c.23-.02.47-.04.7-.06.24-.03.31.04.29.29-.05.51-.19.61-.68.46-.18-.06-.36-.15-.47-.19-.18-.31-.1-.47.16-.49ZM929.53,59.43c.12-.61.2-1.23.36-1.83.1-.4.51-.44.85-.45.29,0,.59.09.87.16.06.02.11.15.14.24.02.04-.02.1-.03.16-.11.46-.11.47-.56.38-.27-.05-.48,0-.58.29-.08.25-.17.49-.26.74-.06.16.01.26.17.3.32.08.65.16.97.24.2.05.3-.05.35-.23.04-.16.09-.31.14-.49.15.03.27.04.38.07.36.09.48.29.46.66-.03.78-.72,1.08-1.24.91-.56-.18-1.12-.37-1.67-.56-.28-.09-.42-.28-.36-.58ZM922.29,66.92c-4.16,2.48-8.32,4.96-12.48,7.44-.37.22-.74.43-1.11.63-.1.06-.25.1-.36.08-.68-.17-1.35-.35-2.02-.54-.05-.01-.09-.05-.19-.11.14-.1.24-.18.34-.25,5.22-3.2,10.43-6.4,15.65-9.6,2.22-1.36,4.45-2.7,6.67-4.05.21-.13.41-.17.64-.09.21.07.41.14.62.2.52.16,1.03.32,1.55.49.05.02.1.04.22.08-.2.12-.35.21-.5.31-3.01,1.8-6.02,3.61-9.03,5.41ZM938.75,57.64c.34.02.63.15.85.42.56.69.92,1.49.95,2.36.05,1.21-.2,2.36-1.27,3.13-.51.37-1.06.69-1.61,1.01-.66.37-1.37.34-2.09.21-1.02-.18-1.94-.56-2.58-1.41-.41-.55-.71-1.16-.8-1.85-.02-.17-.07-.4.15-.47.22-.06.27.17.34.31.17.35.31.71.49,1.06.66,1.32,1.86,1.95,3.33,1.76,1.95-.25,3.36-1.79,3.36-3.66,0-.54-.14-1.06-.36-1.55-.01-.03-.02-.06-.04-.09,0,0,0,0,0-.01-.04-.08-.08-.17-.12-.25-.02-.03-.04-.06-.07-.09-.41-.62-.89-.78-.89-.78.15-.05.26-.11.36-.11ZM937.85,57.81c.29.32.45.74.47,1.17.02.61-.23,1.2-.63,1.66-.32.36-.73.65-1.2.77-.46.13-.96.1-1.41-.04-.46-.14-.88-.38-1.26-.67-.15-.11-.3-.24-.39-.41-.09-.17-.1-.39.01-.54.14-.2.45-.21.67-.1.22.11.37.31.52.51.15.19.3.4.53.5.3.14.65.08.95-.05.63-.27,1.13-.81,1.34-1.46.04-.12.07-.25.03-.36-.06-.18-.26-.26-.4-.38-.08-.07-.14-.16-.17-.26-.04-.12-.04-.24,0-.36.06-.18.29-.37.5-.32.16.04.35.25.45.36ZM937,59.17c-.02.16-.12.3-.21.42-.22.28-.5.54-.85.64s-.77,0-.96-.3c-.03-.05-.06-.1-.04-.16.01-.03.04-.06.06-.08.16-.15.35-.27.53-.38.07-.04.13-.08.2-.12.15-.09.31-.19.46-.28.3-.18.9-.3.81.26ZM943.8,52.6s0-.02-.01-.04c-.41.54-.97,1.23-1.48,1.75-.02.03-.05.06-.07.09-.01.02-.11.11-.24.22,0,0,0,0,0,0-.59.54-1.51,1.44-2.34,2.03,0,.03-.67.51-1.13.56,0,0,.16-1.93-.16-2.47,0,0,0,0,0,0l.14-.1s0,0,0,0l.3-.21s0,0,0,0l1.25-.87s0,0,0,0l.47-.33s0,0,0,0l.54-.38s0,0,0,0l.32-.22s0,0,0,0l1.26-.87s0,0,0,0l.26-.18s0,0,0,0l.53-.37s0,0,0,0l.33-.23s0,0,0,0l.32-.22h0s0,.01,0,.01c.13.21.24.4.36.6,0,0,.06,0,.03.12,0,.03,0,.06-.02.08-.03.04-.06.09-.09.13-.02.03-.04.06-.06.09-.02.03-.04.06-.06.09-.16.24-.32.48-.49.71ZM948.83,46.47c.58-.36,1.4-.37,1.82.35.29.5.09,1.37-.42,1.7-.52.33-1.43.14-1.75-.37-.35-.56-.19-1.34.35-1.68ZM943.07,47.39c-.35-.59-.15-1.49.41-1.84.58-.36,1.45-.09,1.85.57.37.44.11,1.3-.48,1.66-.59.35-1.45.17-1.78-.38ZM944.81,48.46c.2-.38.59-.53.98-.61,1-.2,2.43.43,2.48,1.94.03.94-1.03,2.19-2.36,1.89-.26-.06-.54-.12-.77-.26-.17-.1-.27-.32-.4-.49-.58-.84-.37-1.66.06-2.47ZM935.5,51.09c.35.51.63,1.03.78,1.63.04.15.05.31.04.46-.02.19-.18.3-.35.26-.12-.03-.3-.16-.31-.26-.07-.68-.27-1.29-.79-1.76-.62-.57-1.36-.88-2.19-.99-2.03-.27-3.4,1.28-3.73,2.76-.21.92-.06,1.74.49,2.49.26.36.52.71.78,1.07-.36.18-.61.17-.87-.12-1.01-1.1-1.5-2.5-.88-4.03.42-1.04,1.1-1.86,2.07-2.48,1.29-.82,3.87-.63,4.97.97Z"/>
            </g>
            <g>
              <path class="cls-2" d="M932.71,85.26c0-.19.08-.29.3-.19.68.29,1.1.09,1.32-.61.07-.24.28-.32.44-.14.1.11.13.3.17.46.03.12.03.24.04.37.03,0,.05,0,.08,0,.16-.27.17-.56.08-.85-.28-.91-1.29-1.26-2.2-.77-.84.46-1.01,1.85-.29,2.48.12.11.26.23.49.11-.07-.07-.11-.14-.17-.18-.25-.17-.27-.42-.26-.67Z"/>
              <path class="cls-2" d="M922.74,91.02c-.34-.41-.97-.54-1.46-.33-.49.21-.81.75-.79,1.28.01.37.19.72.46.98.12.11.26.21.41.27.06.02.41.02.48.03,0,0,0,0,.01,0-.18-.23-.51-.35-.6-.62-.07-.19,0-.41.14-.56.13-.15.32-.24.5-.32.24-.09.56-.14.73.07.19.24,0,.6.08.89,0,.03.02.07.06.08.04.01.08-.03.1-.07.28-.53.29-1.24-.1-1.7Z"/>
              <path class="cls-2" d="M920.13,88.3c-.16-.25-.46-.36-.64-.24-.23.15-.28.51-.11.78.15.24.46.38.64.27.22-.12.28-.56.11-.81Z"/>
              <path class="cls-2" d="M923.58,95.33c.09.17.46.27.63.18.19-.1.28-.42.18-.62-.12-.24-.4-.32-.65-.19-.22.12-.29.38-.16.63Z"/>
              <path class="cls-2" d="M919.04,94.04c-.14-.24-.47-.35-.68-.23-.24.14-.33.47-.19.7.16.27.54.39.77.24.19-.12.24-.48.1-.72Z"/>
              <path class="cls-2" d="M939.02,92.87c0-.22-.09-.44-.13-.66-.01-.09,0-.23.05-.28.57-.54.92-1.21,1.26-1.89.52-1.05.67-2.14.26-3.27-.14-.39-.33-.76-.52-1.14-.1-.2-.09-.31.12-.44.56-.35,1.1-.73,1.67-1.08,6.55-4.05,13.11-8.09,19.66-12.13.41-.25.82-.5,1.22-.77.11-.07.19-.24.21-.37.07-.46.07-.92.15-1.37.16-.85.35-1.7.54-2.57-.08-.03-.17-.06-.25-.08-1.18-.35-2.37-.7-3.55-1.07-.15-.05-.31-.03-.45.05-7.43,4.46-14.87,8.93-22.31,13.38-.55.33-.45.41-.8-.22-1.2-2.16-3.23-3.17-5.66-2.82-.24.04-.4.02-.53-.23-.11-.2-.28-.4-.57-.32-.3.09-.52.36-.46.66.09.41-.11.66-.36.9-.66.65-1.12,1.43-1.38,2.31-.47,1.57-.26,3.05.7,4.39.34.46.36.45-.08.82,0,0-.01.01-.02.02-1.75,1.37-3.25,2.97-4.53,4.77-.09.13-.32.25-.47.24-.45-.02-.89-.11-1.36-.17.14-.54.27-1.12,0-1.67-.28-.57-.8-.87-1.39-1-.78-.18-1.66.36-1.88,1.09-.15.5-.1.98.11,1.46.29.66.88.91,1.53,1.07-.06.15-.11.27-.15.4-.15.46-.34.92-.19,1.43.13.45.09.5-.37.39-.79-.18-1.59.15-1.97.82-.37.65-.22,1.51.36,2.11.74.59,1.61.38,1.89.25.69-.3.92-.88.99-1.57,0-.06.01-.11.02-.16,0-.07.08-.11.14-.09.59.16,1.15.31,1.7.46.02.28-.01.63.08.94.27.87,1.07,1.38,1.99,1.35.55-.02.95-.27,1.2-.75.29-.57.31-1.15,0-1.72-.31-.58-.78-.95-1.47-1.04.07-.33.13-.64.19-.96.29-.03.54-.05.79-.08,1.63-.19,3.26-.4,4.79-1.05.58-.25,1.17-.49,1.76-.73.15-.06.25-.05.35.12.61,1.03,1.34,1.92,2.61,2.15.2.04.39.08.58.14.83.26,1.65.18,2.47-.03.09-.02.22.05.31.11.06.04.09.14.14.2.17.22.4.29.65.23.25-.07.38-.27.37-.51ZM918.76,89.39c-.41-.67-.34-1.56.16-1.88.71-.45,1.57-.28,1.99.39.43.69.23,1.47-.5,1.91-.57.35-1.29.16-1.65-.42ZM930.44,86.39c.04.11.11.21.18.3.11.14.23.16.36,0,.13-.15.26-.3.4-.44.04-.04.14-.08.19-.06.05.02.09.11.1.17.08.61-.44,1.12-1.05,1.03-.05,0-.11-.02-.15-.05-.39-.22-.74-1.05-.63-1.48.05-.19.15-.33.37-.33.25,0,.51-.02.76-.01.1,0,.2.05.3.08,0,.04,0,.08.01.12-.2.07-.39.15-.6.2-.27.07-.35.19-.24.45ZM931.8,86.98c.06-.11.21-.26.29-.24.2.04.41.16.4.41-.01.23-.05.47-.14.68-.12.28-.51.28-.71-.02,0-.07-.05-.2-.02-.32.04-.17.1-.35.19-.5ZM932.73,87.51c0-.09.03-.19.11-.22,0,0,.02,0,.03,0,.04,0,.08,0,.12,0,.17.02.34.05.51.07.03,0,.07.01.1.04.05.05.02.13,0,.2-.08.31.14.64.43.78.29.14.63.11.94.03.41-.11.8-.34,1.04-.7.24-.35.3-.84.09-1.21-.09-.16-.24-.31-.22-.5,0-.11.08-.21.15-.29.09-.09.2-.16.32-.18.24-.02.44.18.55.39.16.3.22.65.23.99.02.39-.02.79-.21,1.13-.2.37-.55.64-.92.85-.66.36-1.51.58-2.24.29-.65-.25-1.08-.96-1.03-1.65ZM935.78,86.53c.06.03.07.09.08.15.05.38-.1.78-.39,1.03-.05.04-.11.09-.18.12-.36.2-.9.29-1.12-.1-.05-.09-.07-.2-.02-.3.05-.1.15-.16.24-.22.4-.23.8-.45,1.21-.67.05-.03.12-.06.17-.03ZM933.72,86.69c-.88.19-2-.59-2.17-1.48-.16-.87.27-1.74,1.21-2.31.44-.26,1.02-.4,1.66-.27,1.27.26,1.85,1.44,1.26,2.59-.41.8-1.09,1.27-1.96,1.46ZM930.86,85.21c-.23.02-.47.04-.7.06-.24.03-.31-.04-.29-.29.05-.51.19-.61.68-.46.18.06.36.15.47.19.18.31.1.47-.16.49ZM938.61,82.31c-.12.61-.2,1.23-.36,1.83-.1.4-.51.44-.85.45-.29,0-.59-.09-.87-.16-.06-.02-.11-.15-.14-.24-.02-.04.02-.1.03-.16.11-.46.11-.47.56-.38.27.05.48,0,.58-.29.08-.25.17-.49.26-.74.06-.16-.01-.26-.17-.3-.32-.08-.65-.16-.97-.24-.2-.05-.3.05-.35.23-.04.16-.09.31-.14.49-.15-.03-.27-.04-.38-.07-.36-.09-.48-.29-.46-.66.03-.78.72-1.08,1.24-.91.56.18,1.12.37,1.67.56.28.09.42.28.36.58ZM945.86,74.82c4.16-2.48,8.32-4.96,12.48-7.44.37-.22.74-.43,1.11-.63.1-.06.25-.1.36-.08.68.17,1.35.35,2.02.54.05.01.09.05.19.11-.14.1-.24.18-.34.25-5.22,3.2-10.43,6.4-15.65,9.6-2.22,1.36-4.45,2.7-6.67,4.05-.21.13-.41.17-.64.09-.21-.07-.41-.14-.62-.2-.52-.16-1.03-.32-1.55-.49-.05-.02-.1-.04-.22-.08.2-.12.35-.21.5-.31,3.01-1.8,6.02-3.61,9.03-5.41ZM929.39,84.1c-.34-.02-.63-.15-.85-.42-.56-.69-.92-1.49-.95-2.36-.05-1.21.2-2.36,1.27-3.13.51-.37,1.06-.69,1.61-1.01.66-.37,1.37-.34,2.09-.21,1.02.18,1.94.56,2.58,1.41.41.55.71,1.16.8,1.85.02.17.07.4-.15.47-.22.06-.27-.17-.34-.31-.17-.35-.31-.71-.49-1.06-.66-1.32-1.86-1.95-3.33-1.76-1.95.25-3.36,1.79-3.36,3.66,0,.54.14,1.06.36,1.55.01.03.02.06.04.09,0,0,0,0,0,.01.04.08.08.17.12.25.02.03.04.06.07.09.41.62.89.78.89.78-.15.05-.26.11-.36.11ZM930.29,83.93c-.29-.32-.45-.74-.47-1.17-.02-.61.23-1.2.63-1.66.32-.36.73-.65,1.2-.77.46-.13.96-.1,1.41.04.46.14.88.38,1.26.67.15.11.3.24.39.41.09.17.1.39-.01.54-.14.2-.45.21-.67.1-.22-.11-.37-.31-.52-.51-.15-.19-.3-.4-.53-.5-.3-.14-.65-.08-.95.05-.63.27-1.13.81-1.34,1.46-.04.12-.07.25-.03.36.06.18.26.26.4.38.08.07.14.16.17.26.04.12.04.24,0,.36-.06.18-.29.37-.5.32-.16-.04-.35-.25-.45-.36ZM931.14,82.57c.02-.16.12-.3.21-.42.22-.28.5-.54.85-.64s.77,0,.96.3c.03.05.06.1.04.16-.01.03-.04.06-.06.08-.16.15-.35.27-.53.38-.07.04-.13.08-.2.12-.15.09-.31.19-.46.28-.3.18-.9.3-.81-.26ZM924.34,89.14s0,.02.01.04c.41-.54.97-1.23,1.48-1.75.02-.03.05-.06.07-.09.01-.02.11-.11.24-.22,0,0,0,0,0,0,.59-.54,1.51-1.44,2.34-2.03,0-.03.67-.51,1.13-.56,0,0-.16,1.93.16,2.47,0,0,0,0,0,0l-.14.1s0,0,0,0l-.3.21s0,0,0,0l-1.25.87s0,0,0,0l-.47.33s0,0,0,0l-.54.38s0,0,0,0l-.32.22s0,0,0,0l-1.26.87s0,0,0,0l-.26.18s0,0,0,0l-.53.37s0,0,0,0l-.33.23s0,0,0,0l-.32.22h0s0-.01,0-.01c-.13-.21-.24-.4-.36-.6,0,0-.06,0-.03-.12,0-.03,0-.06.02-.08.03-.04.06-.09.09-.13.02-.03.04-.06.06-.09.02-.03.04-.06.06-.09.16-.24.32-.48.49-.71ZM919.32,95.27c-.58.36-1.4.37-1.82-.35-.29-.5-.09-1.37.42-1.7.52-.33,1.43-.14,1.75.37.35.56.19,1.34-.35,1.68ZM925.07,94.35c.35.59.15,1.49-.41,1.84-.58.36-1.45.09-1.85-.57-.37-.44-.11-1.3.48-1.66.59-.35,1.45-.17,1.78.38ZM923.34,93.28c-.2.38-.59.53-.98.61-1,.2-2.43-.43-2.48-1.94-.03-.94,1.03-2.19,2.36-1.89.26.06.54.12.77.26.17.1.27.32.4.49.58.84.37,1.66-.06,2.47ZM932.64,90.65c-.35-.51-.63-1.03-.78-1.63-.04-.15-.05-.31-.04-.46.02-.19.18-.3.35-.26.12.03.3.16.31.26.07.68.27,1.29.79,1.76.62.57,1.36.88,2.19.99,2.03.27,3.4-1.28,3.73-2.76.21-.92.06-1.74-.49-2.49-.26-.36-.52-.71-.78-1.07.36-.18.61-.17.87.12,1.01,1.1,1.5,2.5.88,4.03-.42,1.04-1.1,1.86-2.07,2.48-1.29.82-3.87.63-4.97-.97Z"/>
            </g>
          </g>
          <g>
            <g>
              <path class="cls-2" d="M844.44,85.06c0-.19.08-.29.3-.19.68.29,1.1.09,1.32-.61.07-.24.28-.32.44-.14.1.11.13.3.17.46.03.12.03.24.04.37.03,0,.05,0,.08,0,.16-.27.17-.56.08-.85-.28-.91-1.29-1.26-2.2-.77-.84.46-1.01,1.85-.29,2.48.12.11.26.23.49.11-.07-.07-.11-.14-.17-.18-.25-.17-.27-.42-.26-.67Z"/>
              <path class="cls-2" d="M834.47,90.82c-.34-.41-.97-.54-1.46-.33-.49.21-.81.75-.79,1.28.01.37.19.72.46.98.12.11.26.21.41.27.06.02.41.02.48.03,0,0,0,0,.01,0-.18-.23-.51-.35-.6-.62-.07-.19,0-.41.14-.56.13-.15.32-.24.5-.32.24-.09.56-.14.73.07.19.24,0,.6.08.89,0,.03.02.07.06.08.04.01.08-.03.1-.07.28-.53.29-1.24-.1-1.7Z"/>
              <path class="cls-2" d="M831.86,88.11c-.16-.25-.46-.36-.64-.24-.23.15-.28.51-.11.78.15.24.46.38.64.27.22-.12.28-.56.11-.81Z"/>
              <path class="cls-2" d="M835.31,95.13c.09.17.46.27.63.18.19-.1.28-.42.18-.62-.12-.24-.4-.32-.65-.19-.22.12-.29.38-.16.63Z"/>
              <path class="cls-2" d="M830.77,93.85c-.14-.24-.47-.35-.68-.23-.24.14-.33.47-.19.7.16.27.54.39.77.24.19-.12.24-.48.1-.72Z"/>
              <path class="cls-2" d="M850.74,92.68c0-.22-.09-.44-.13-.66-.01-.09,0-.23.05-.28.57-.54.92-1.21,1.26-1.89.52-1.05.67-2.14.26-3.27-.14-.39-.33-.76-.52-1.14-.1-.2-.09-.31.12-.44.56-.35,1.1-.73,1.67-1.08,6.55-4.05,13.11-8.09,19.66-12.13.41-.25.82-.5,1.22-.77.11-.07.19-.24.21-.37.07-.46.07-.92.15-1.37.16-.85.35-1.7.54-2.57-.08-.03-.17-.06-.25-.08-1.18-.35-2.37-.7-3.55-1.07-.15-.05-.31-.03-.45.05-7.43,4.46-14.87,8.93-22.31,13.38-.55.33-.45.41-.8-.22-1.2-2.16-3.23-3.17-5.66-2.82-.24.04-.4.02-.53-.23-.11-.2-.28-.4-.57-.32-.3.09-.52.36-.46.66.09.41-.11.66-.36.9-.66.65-1.12,1.43-1.38,2.31-.47,1.57-.26,3.05.7,4.39.34.46.36.45-.08.82,0,0-.01.01-.02.02-1.75,1.37-3.25,2.97-4.53,4.77-.09.13-.32.25-.47.24-.45-.02-.89-.11-1.36-.17.14-.54.27-1.12,0-1.67-.28-.57-.8-.87-1.39-1-.78-.18-1.66.36-1.88,1.09-.15.5-.1.98.11,1.46.29.66.88.91,1.53,1.07-.06.15-.11.27-.15.4-.15.46-.34.92-.19,1.43.13.45.09.5-.37.39-.79-.18-1.59.15-1.97.82-.37.65-.22,1.51.36,2.11.74.59,1.61.38,1.89.25.69-.3.92-.88.99-1.57,0-.06.01-.11.02-.16,0-.07.08-.11.14-.09.59.16,1.15.31,1.7.46.02.28-.01.63.08.94.27.87,1.07,1.38,1.99,1.35.55-.02.95-.27,1.2-.75.29-.57.31-1.15,0-1.72-.31-.58-.78-.95-1.47-1.04.07-.33.13-.64.19-.96.29-.03.54-.05.79-.08,1.63-.19,3.26-.4,4.79-1.05.58-.25,1.17-.49,1.76-.73.15-.06.25-.05.35.12.61,1.03,1.34,1.92,2.61,2.15.2.04.39.08.58.14.83.26,1.65.18,2.47-.03.09-.02.22.05.31.11.06.04.09.14.14.2.17.22.4.29.65.23.25-.07.38-.27.37-.51ZM830.49,89.19c-.41-.67-.34-1.56.16-1.88.71-.45,1.57-.28,1.99.39.43.69.23,1.47-.5,1.91-.57.35-1.29.16-1.65-.42ZM842.16,86.19c.04.11.11.21.18.3.11.14.23.16.36,0,.13-.15.26-.3.4-.44.04-.04.14-.08.19-.06.05.02.09.11.1.17.08.61-.44,1.12-1.05,1.03-.05,0-.11-.02-.15-.05-.39-.22-.74-1.05-.63-1.48.05-.19.15-.33.37-.33.25,0,.51-.02.76-.01.1,0,.2.05.3.08,0,.04,0,.08.01.12-.2.07-.39.15-.6.2-.27.07-.35.19-.24.45ZM843.53,86.79c.06-.11.21-.26.29-.24.2.04.41.16.4.41-.01.23-.05.47-.14.68-.12.28-.51.28-.71-.02,0-.07-.05-.2-.02-.32.04-.17.1-.35.19-.5ZM844.46,87.32c0-.09.03-.19.11-.22,0,0,.02,0,.03,0,.04,0,.08,0,.12,0,.17.02.34.05.51.07.03,0,.07.01.1.04.05.05.02.13,0,.2-.08.31.14.64.43.78.29.14.63.11.94.03.41-.11.8-.34,1.04-.7.24-.35.3-.84.09-1.21-.09-.16-.24-.31-.22-.5,0-.11.08-.21.15-.29.09-.09.2-.16.32-.18.24-.02.44.18.55.39.16.3.22.65.23.99.02.39-.02.79-.21,1.13-.2.37-.55.64-.92.85-.66.36-1.51.58-2.24.29-.65-.25-1.08-.96-1.03-1.65ZM847.51,86.34c.06.03.07.09.08.15.05.38-.1.78-.39,1.03-.05.04-.11.09-.18.12-.36.2-.9.29-1.12-.1-.05-.09-.07-.2-.02-.3.05-.1.15-.16.24-.22.4-.23.8-.45,1.21-.67.05-.03.12-.06.17-.03ZM845.45,86.49c-.88.19-2-.59-2.17-1.48-.16-.87.27-1.74,1.21-2.31.44-.26,1.02-.4,1.66-.27,1.27.26,1.85,1.44,1.26,2.59-.41.8-1.09,1.27-1.96,1.46ZM842.59,85.01c-.23.02-.47.04-.7.06-.24.03-.31-.04-.29-.29.05-.51.19-.61.68-.46.18.06.36.15.47.19.18.31.1.47-.16.49ZM850.34,82.11c-.12.61-.2,1.23-.36,1.83-.1.4-.51.44-.85.45-.29,0-.59-.09-.87-.16-.06-.02-.11-.15-.14-.24-.02-.04.02-.1.03-.16.11-.46.11-.47.56-.38.27.05.48,0,.58-.29.08-.25.17-.49.26-.74.06-.16-.01-.26-.17-.3-.32-.08-.65-.16-.97-.24-.2-.05-.3.05-.35.23-.04.16-.09.31-.14.49-.15-.03-.27-.04-.38-.07-.36-.09-.48-.29-.46-.66.03-.78.72-1.08,1.24-.91.56.18,1.12.37,1.67.56.28.09.42.28.36.58ZM857.58,74.62c4.16-2.48,8.32-4.96,12.48-7.44.37-.22.74-.43,1.11-.63.1-.06.25-.1.36-.08.68.17,1.35.35,2.02.54.05.01.09.05.19.11-.14.1-.24.18-.34.25-5.22,3.2-10.43,6.4-15.65,9.6-2.22,1.36-4.45,2.7-6.67,4.05-.21.13-.41.17-.64.09-.21-.07-.41-.14-.62-.2-.52-.16-1.03-.32-1.55-.49-.05-.02-.1-.04-.22-.08.2-.12.35-.21.5-.31,3.01-1.8,6.02-3.61,9.03-5.41ZM841.12,83.91c-.34-.02-.63-.15-.85-.42-.56-.69-.92-1.49-.95-2.36-.05-1.21.2-2.36,1.27-3.13.51-.37,1.06-.69,1.61-1.01.66-.37,1.37-.34,2.09-.21,1.02.18,1.94.56,2.58,1.41.41.55.71,1.16.8,1.85.02.17.07.4-.15.47-.22.06-.27-.17-.34-.31-.17-.35-.31-.71-.49-1.06-.66-1.32-1.86-1.95-3.33-1.76-1.95.25-3.36,1.79-3.36,3.66,0,.54.14,1.06.36,1.55.01.03.02.06.04.09,0,0,0,0,0,.01.04.08.08.17.12.25.02.03.04.06.07.09.41.62.89.78.89.78-.15.05-.26.11-.36.11ZM842.02,83.73c-.29-.32-.45-.74-.47-1.17-.02-.61.23-1.2.63-1.66.32-.36.73-.65,1.2-.77.46-.13.96-.1,1.41.04.46.14.88.38,1.26.67.15.11.3.24.39.41.09.17.1.39-.01.54-.14.2-.45.21-.67.1-.22-.11-.37-.31-.52-.51-.15-.19-.3-.4-.53-.5-.3-.14-.65-.08-.95.05-.63.27-1.13.81-1.34,1.46-.04.12-.07.25-.03.36.06.18.26.26.4.38.08.07.14.16.17.26.04.12.04.24,0,.36-.06.18-.29.37-.5.32-.16-.04-.35-.25-.45-.36ZM842.87,82.37c.02-.16.12-.3.21-.42.22-.28.5-.54.85-.64s.77,0,.96.3c.03.05.06.1.04.16-.01.03-.04.06-.06.08-.16.15-.35.27-.53.38-.07.04-.13.08-.2.12-.15.09-.31.19-.46.28-.3.18-.9.3-.81-.26ZM836.07,88.94s0,.02.01.04c.41-.54.97-1.23,1.48-1.75.02-.03.05-.06.07-.09.01-.02.11-.11.24-.22,0,0,0,0,0,0,.59-.54,1.51-1.44,2.34-2.03,0-.03.67-.51,1.13-.56,0,0-.16,1.93.16,2.47,0,0,0,0,0,0l-.14.1s0,0,0,0l-.3.21s0,0,0,0l-1.25.87s0,0,0,0l-.47.33s0,0,0,0l-.54.38s0,0,0,0l-.32.22s0,0,0,0l-1.26.87s0,0,0,0l-.26.18s0,0,0,0l-.53.37s0,0,0,0l-.33.23s0,0,0,0l-.32.22h0s0-.01,0-.01c-.13-.21-.24-.4-.36-.6,0,0-.06,0-.03-.12,0-.03,0-.06.02-.08.03-.04.06-.09.09-.13.02-.03.04-.06.06-.09.02-.03.04-.06.06-.09.16-.24.32-.48.49-.71ZM831.04,95.07c-.58.36-1.4.37-1.82-.35-.29-.5-.09-1.37.42-1.7.52-.33,1.43-.14,1.75.37.35.56.19,1.34-.35,1.68ZM836.8,94.16c.35.59.15,1.49-.41,1.84-.58.36-1.45.09-1.85-.57-.37-.44-.11-1.3.48-1.66.59-.35,1.45-.17,1.78.38ZM835.06,93.08c-.2.38-.59.53-.98.61-1,.2-2.43-.43-2.48-1.94-.03-.94,1.03-2.19,2.36-1.89.26.06.54.12.77.26.17.1.27.32.4.49.58.84.37,1.66-.06,2.47ZM844.37,90.46c-.35-.51-.63-1.03-.78-1.63-.04-.15-.05-.31-.04-.46.02-.19.18-.3.35-.26.12.03.3.16.31.26.07.68.27,1.29.79,1.76.62.57,1.36.88,2.19.99,2.03.27,3.4-1.28,3.73-2.76.21-.92.06-1.74-.49-2.49-.26-.36-.52-.71-.78-1.07.36-.18.61-.17.87.12,1.01,1.1,1.5,2.5.88,4.03-.42,1.04-1.1,1.86-2.07,2.48-1.29.82-3.87.63-4.97-.97Z"/>
            </g>
            <g>
              <path class="cls-2" d="M871.4,95.78c0,.19-.08.29-.3.19-.68-.29-1.1-.09-1.32.61-.07.24-.28.32-.44.14-.1-.11-.13-.3-.17-.46-.03-.12-.03-.24-.04-.37-.03,0-.05,0-.08,0-.16.27-.17.56-.08.85.28.91,1.29,1.26,2.2.77.84-.46,1.01-1.85.29-2.48-.12-.11-.26-.23-.49-.11.07.07.11.14.17.18.25.17.27.42.26.67Z"/>
              <path class="cls-2" d="M881.37,90.02c.34.41.97.54,1.46.33.49-.21.81-.75.79-1.28-.01-.37-.19-.72-.46-.98-.12-.11-.26-.21-.41-.27-.06-.02-.41-.02-.48-.03,0,0,0,0-.01,0,.18.23.51.35.6.62.07.19,0,.41-.14.56-.13.15-.32.24-.5.32-.24.09-.56.14-.73-.07-.19-.24,0-.6-.08-.89,0-.03-.02-.07-.06-.08-.04-.01-.08.03-.1.07-.28.53-.29,1.24.1,1.7Z"/>
              <path class="cls-2" d="M883.98,92.73c.16.25.46.36.64.24.23-.15.28-.51.11-.78-.15-.24-.46-.38-.64-.27-.22.12-.28.56-.11.81Z"/>
              <path class="cls-2" d="M880.52,85.71c-.09-.17-.46-.27-.63-.18-.19.1-.28.42-.18.62.12.24.4.32.65.19.22-.12.29-.38.16-.63Z"/>
              <path class="cls-2" d="M885.06,86.99c.14.24.47.35.68.23.24-.14.33-.47.19-.7-.16-.27-.54-.39-.77-.24-.19.12-.24.48-.1.72Z"/>
              <path class="cls-2" d="M865.09,88.16c0,.22.09.44.13.66.01.09,0,.23-.05.28-.57.54-.92,1.21-1.26,1.89-.52,1.05-.67,2.14-.26,3.27.14.39.33.76.52,1.14.1.2.09.31-.12.44-.56.35-1.1.73-1.67,1.08-6.55,4.05-13.11,8.09-19.66,12.13-.41.25-.82.5-1.22.77-.11.07-.19.24-.21.37-.07.46-.07.92-.15,1.37-.16.85-.35,1.7-.54,2.57.08.03.17.06.25.08,1.18.35,2.37.7,3.55,1.07.15.05.31.03.45-.05,7.43-4.46,14.87-8.93,22.31-13.38.55-.33.45-.41.8.22,1.2,2.16,3.23,3.17,5.66,2.82.24-.04.4-.02.53.23.11.2.28.4.57.32.3-.09.52-.36.46-.66-.09-.41.11-.66.36-.9.66-.65,1.12-1.43,1.38-2.31.47-1.57.26-3.05-.7-4.39-.34-.46-.36-.45.08-.82,0,0,.01-.01.02-.02,1.75-1.37,3.25-2.97,4.53-4.77.09-.13.32-.25.47-.24.45.02.89.11,1.36.17-.14.54-.27,1.12,0,1.67.28.57.8.87,1.39,1,.78.18,1.66-.36,1.88-1.09.15-.5.1-.98-.11-1.46-.29-.66-.88-.91-1.53-1.07.06-.15.11-.27.15-.4.15-.46.34-.92.19-1.43-.13-.45-.09-.5.37-.39.79.18,1.59-.15,1.97-.82.37-.65.22-1.51-.36-2.11-.74-.59-1.61-.38-1.89-.25-.69.3-.92.88-.99,1.57,0,.06-.01.11-.02.16,0,.07-.08.11-.14.09-.59-.16-1.15-.31-1.7-.46-.02-.28.01-.63-.08-.94-.27-.87-1.07-1.38-1.99-1.35-.55.02-.95.27-1.2.75-.29.57-.31,1.15,0,1.72.31.58.78.95,1.47,1.04-.07.33-.13.64-.19.96-.29.03-.54.05-.79.08-1.63.19-3.26.4-4.79,1.05-.58.25-1.17.49-1.76.73-.15.06-.25.05-.35-.12-.61-1.03-1.34-1.92-2.61-2.15-.2-.04-.39-.08-.58-.14-.83-.26-1.65-.18-2.47.03-.09.02-.22-.05-.31-.11-.06-.04-.09-.14-.14-.2-.17-.22-.4-.29-.65-.23-.25.07-.38.27-.37.51ZM885.34,91.65c.41.67.34,1.56-.16,1.88-.71.45-1.57.28-1.99-.39-.43-.69-.23-1.47.5-1.91.57-.35,1.29-.16,1.65.42ZM873.67,94.65c-.04-.11-.11-.21-.18-.3-.11-.14-.23-.16-.36,0-.13.15-.26.3-.4.44-.04.04-.14.08-.19.06-.05-.02-.09-.11-.1-.17-.08-.61.44-1.12,1.05-1.03.05,0,.11.02.15.05.39.22.74,1.05.63,1.48-.05.19-.15.33-.37.33-.25,0-.51.02-.76.01-.1,0-.2-.05-.3-.08,0-.04,0-.08-.01-.12.2-.07.39-.15.6-.2.27-.07.35-.19.24-.45ZM872.3,94.06c-.06.11-.21.26-.29.24-.2-.04-.41-.16-.4-.41.01-.23.05-.47.14-.68.12-.28.51-.28.71.02,0,.07.05.2.02.32-.04.17-.1.35-.19.5ZM871.37,93.52c0,.09-.03.19-.11.22,0,0-.02,0-.03,0-.04,0-.08,0-.12,0-.17-.02-.34-.05-.51-.07-.03,0-.07-.01-.1-.04-.05-.05-.02-.13,0-.2.08-.31-.14-.64-.43-.78-.29-.14-.63-.11-.94-.03-.41.11-.8.34-1.04.7-.24.35-.3.84-.09,1.21.09.16.24.31.22.5,0,.11-.08.21-.15.29-.09.09-.2.16-.32.18-.24.02-.44-.18-.55-.39-.16-.3-.22-.65-.23-.99-.02-.39.02-.79.21-1.13.2-.37.55-.64.92-.85.66-.36,1.51-.58,2.24-.29.65.25,1.08.96,1.03,1.65ZM868.32,94.5c-.06-.03-.07-.09-.08-.15-.05-.38.1-.78.39-1.03.05-.04.11-.09.18-.12.36-.2.9-.29,1.12.1.05.09.07.2.02.3-.05.1-.15.16-.24.22-.4.23-.8.45-1.21.67-.05.03-.12.06-.17.03ZM870.39,94.35c.88-.19,2,.59,2.17,1.48.16.87-.27,1.74-1.21,2.31-.44.26-1.02.4-1.66.27-1.27-.26-1.85-1.44-1.26-2.59.41-.8,1.09-1.27,1.96-1.46ZM873.25,95.83c.23-.02.47-.04.7-.06.24-.03.31.04.29.29-.05.51-.19.61-.68.46-.18-.06-.36-.15-.47-.19-.18-.31-.1-.47.16-.49ZM865.5,98.73c.12-.61.2-1.23.36-1.83.1-.4.51-.44.85-.45.29,0,.59.09.87.16.06.02.11.15.14.24.02.04-.02.1-.03.16-.11.46-.11.47-.56.38-.27-.05-.48,0-.58.29-.08.25-.17.49-.26.74-.06.16.01.26.17.3.32.08.65.16.97.24.2.05.3-.05.35-.23.04-.16.09-.31.14-.49.15.03.27.04.38.07.36.09.48.29.46.66-.03.78-.72,1.08-1.24.91-.56-.18-1.12-.37-1.67-.56-.28-.09-.42-.28-.36-.58ZM858.25,106.22c-4.16,2.48-8.32,4.96-12.48,7.44-.37.22-.74.43-1.11.63-.1.06-.25.1-.36.08-.68-.17-1.35-.35-2.02-.54-.05-.01-.09-.05-.19-.11.14-.1.24-.18.34-.25,5.22-3.2,10.43-6.4,15.65-9.6,2.22-1.36,4.45-2.7,6.67-4.05.21-.13.41-.17.64-.09.21.07.41.14.62.2.52.16,1.03.32,1.55.49.05.02.1.04.22.08-.2.12-.35.21-.5.31-3.01,1.8-6.02,3.61-9.03,5.41ZM874.71,96.94c.34.02.63.15.85.42.56.69.92,1.49.95,2.36.05,1.21-.2,2.36-1.27,3.13-.51.37-1.06.69-1.61,1.01-.66.37-1.37.34-2.09.21-1.02-.18-1.94-.56-2.58-1.41-.41-.55-.71-1.16-.8-1.85-.02-.17-.07-.4.15-.47.22-.06.27.17.34.31.17.35.31.71.49,1.06.66,1.32,1.86,1.95,3.33,1.76,1.95-.25,3.36-1.79,3.36-3.66,0-.54-.14-1.06-.36-1.55-.01-.03-.02-.06-.04-.09,0,0,0,0,0-.01-.04-.08-.08-.17-.12-.25-.02-.03-.04-.06-.07-.09-.41-.62-.89-.78-.89-.78.15-.05.26-.11.36-.11ZM873.82,97.11c.29.32.45.74.47,1.17.02.61-.23,1.2-.63,1.66-.32.36-.73.65-1.2.77-.46.13-.96.1-1.41-.04-.46-.14-.88-.38-1.26-.67-.15-.11-.3-.24-.39-.41-.09-.17-.1-.39.01-.54.14-.2.45-.21.67-.1.22.11.37.31.52.51.15.19.3.4.53.5.3.14.65.08.95-.05.63-.27,1.13-.81,1.34-1.46.04-.12.07-.25.03-.36-.06-.18-.26-.26-.4-.38-.08-.07-.14-.16-.17-.26-.04-.12-.04-.24,0-.36.06-.18.29-.37.5-.32.16.04.35.25.45.36ZM872.97,98.47c-.02.16-.12.3-.21.42-.22.28-.5.54-.85.64s-.77,0-.96-.3c-.03-.05-.06-.1-.04-.16.01-.03.04-.06.06-.08.16-.15.35-.27.53-.38.07-.04.13-.08.2-.12.15-.09.31-.19.46-.28.3-.18.9-.3.81.26ZM879.77,91.9s0-.02-.01-.04c-.41.54-.97,1.23-1.48,1.75-.02.03-.05.06-.07.09-.01.02-.11.11-.24.22,0,0,0,0,0,0-.59.54-1.51,1.44-2.34,2.03,0,.03-.67.51-1.13.56,0,0,.16-1.93-.16-2.47,0,0,0,0,0,0l.14-.1s0,0,0,0l.3-.21s0,0,0,0l1.25-.87s0,0,0,0l.47-.33s0,0,0,0l.54-.38s0,0,0,0l.32-.22s0,0,0,0l1.26-.87s0,0,0,0l.26-.18s0,0,0,0l.53-.37s0,0,0,0l.33-.23s0,0,0,0l.32-.22h0s0,.01,0,.01c.13.21.24.4.36.6,0,0,.06,0,.03.12,0,.03,0,.06-.02.08-.03.04-.06.09-.09.13-.02.03-.04.06-.06.09-.02.03-.04.06-.06.09-.16.24-.32.48-.49.71ZM884.79,85.77c.58-.36,1.4-.37,1.82.35.29.5.09,1.37-.42,1.7-.52.33-1.43.14-1.75-.37-.35-.56-.19-1.34.35-1.68ZM879.03,86.69c-.35-.59-.15-1.49.41-1.84.58-.36,1.45-.09,1.85.57.37.44.11,1.3-.48,1.66-.59.35-1.45.17-1.78-.38ZM880.77,87.76c.2-.38.59-.53.98-.61,1-.2,2.43.43,2.48,1.94.03.94-1.03,2.19-2.36,1.89-.26-.06-.54-.12-.77-.26-.17-.1-.27-.32-.4-.49-.58-.84-.37-1.66.06-2.47ZM871.47,90.38c.35.51.63,1.03.78,1.63.04.15.05.31.04.46-.02.19-.18.3-.35.26-.12-.03-.3-.16-.31-.26-.07-.68-.27-1.29-.79-1.76-.62-.57-1.36-.88-2.19-.99-2.03-.27-3.4,1.28-3.73,2.76-.21.92-.06,1.74.49,2.49.26.36.52.71.78,1.07-.36.18-.61.17-.87-.12-1.01-1.1-1.5-2.5-.88-4.03.42-1.04,1.1-1.86,2.07-2.48,1.29-.82,3.87-.63,4.97.97Z"/>
            </g>
            <g>
              <path class="cls-2" d="M868.67,124.56c0-.19.08-.29.3-.19.68.29,1.1.09,1.32-.61.07-.24.28-.32.44-.14.1.11.13.3.17.46.03.12.03.24.04.37.03,0,.05,0,.08,0,.16-.27.17-.56.08-.85-.28-.91-1.29-1.26-2.2-.77-.84.46-1.01,1.85-.29,2.48.12.11.26.23.49.11-.07-.07-.11-.14-.17-.18-.25-.17-.27-.42-.26-.67Z"/>
              <path class="cls-2" d="M858.7,130.31c-.34-.41-.97-.54-1.46-.33-.49.21-.81.75-.79,1.28.01.37.19.72.46.98.12.11.26.21.41.27.06.02.41.02.48.03,0,0,0,0,.01,0-.18-.23-.51-.35-.6-.62-.07-.19,0-.41.14-.56.13-.15.32-.24.5-.32.24-.09.56-.14.73.07.19.24,0,.6.08.89,0,.03.02.07.06.08.04.01.08-.03.1-.07.28-.53.29-1.24-.1-1.7Z"/>
              <path class="cls-2" d="M856.09,127.6c-.16-.25-.46-.36-.64-.24-.23.15-.28.51-.11.78.15.24.46.38.64.27.22-.12.28-.56.11-.81Z"/>
              <path class="cls-2" d="M859.55,134.62c.09.17.46.27.63.18.19-.1.28-.42.18-.62-.12-.24-.4-.32-.65-.19-.22.12-.29.38-.16.63Z"/>
              <path class="cls-2" d="M855.01,133.34c-.14-.24-.47-.35-.68-.23-.24.14-.33.47-.19.7.16.27.54.39.77.24.19-.12.24-.48.1-.72Z"/>
              <path class="cls-2" d="M874.98,132.17c0-.22-.09-.44-.13-.66-.01-.09,0-.23.05-.28.57-.54.92-1.21,1.26-1.89.52-1.05.67-2.14.26-3.27-.14-.39-.33-.76-.52-1.14-.1-.2-.09-.31.12-.44.56-.35,1.1-.73,1.67-1.08,6.55-4.05,13.11-8.09,19.66-12.13.41-.25.82-.5,1.22-.77.11-.07.19-.24.21-.37.07-.46.07-.92.15-1.37.16-.85.35-1.7.54-2.57-.08-.03-.17-.06-.25-.08-1.18-.35-2.37-.7-3.55-1.07-.15-.05-.31-.03-.45.05-7.43,4.46-14.87,8.93-22.31,13.38-.55.33-.45.41-.8-.22-1.2-2.16-3.23-3.17-5.66-2.82-.24.04-.4.02-.53-.23-.11-.2-.28-.4-.57-.32-.3.09-.52.36-.46.66.09.41-.11.66-.36.9-.66.65-1.12,1.43-1.38,2.31-.47,1.57-.26,3.05.7,4.39.34.46.36.45-.08.82,0,0-.01.01-.02.02-1.75,1.37-3.25,2.97-4.53,4.77-.09.13-.32.25-.47.24-.45-.02-.89-.11-1.36-.17.14-.54.27-1.12,0-1.67-.28-.57-.8-.87-1.39-1-.78-.18-1.66.36-1.88,1.09-.15.5-.1.98.11,1.46.29.66.88.91,1.53,1.07-.06.15-.11.27-.15.4-.15.46-.34.92-.19,1.43.13.45.09.5-.37.39-.79-.18-1.59.15-1.97.82-.37.65-.22,1.51.36,2.11.74.59,1.61.38,1.89.25.69-.3.92-.88.99-1.57,0-.06.01-.11.02-.16,0-.07.08-.11.14-.09.59.16,1.15.31,1.7.46.02.28-.01.63.08.94.27.87,1.07,1.38,1.99,1.35.55-.02.95-.27,1.2-.75.29-.57.31-1.15,0-1.72-.31-.58-.78-.95-1.47-1.04.07-.33.13-.64.19-.96.29-.03.54-.05.79-.08,1.63-.19,3.26-.4,4.79-1.05.58-.25,1.17-.49,1.76-.73.15-.06.25-.05.35.12.61,1.03,1.34,1.92,2.61,2.15.2.04.39.08.58.14.83.26,1.65.18,2.47-.03.09-.02.22.05.31.11.06.04.09.14.14.2.17.22.4.29.65.23.25-.07.38-.27.37-.51ZM854.72,128.68c-.41-.67-.34-1.56.16-1.88.71-.45,1.57-.28,1.99.39.43.69.23,1.47-.5,1.91-.57.35-1.29.16-1.65-.42ZM866.4,125.68c.04.11.11.21.18.3.11.14.23.16.36,0,.13-.15.26-.3.4-.44.04-.04.14-.08.19-.06.05.02.09.11.1.17.08.61-.44,1.12-1.05,1.03-.05,0-.11-.02-.15-.05-.39-.22-.74-1.05-.63-1.48.05-.19.15-.33.37-.33.25,0,.51-.02.76-.01.1,0,.2.05.3.08,0,.04,0,.08.01.12-.2.07-.39.15-.6.2-.27.07-.35.19-.24.45ZM867.77,126.28c.06-.11.21-.26.29-.24.2.04.41.16.4.41-.01.23-.05.47-.14.68-.12.28-.51.28-.71-.02,0-.07-.05-.2-.02-.32.04-.17.1-.35.19-.5ZM868.7,126.81c0-.09.03-.19.11-.22,0,0,.02,0,.03,0,.04,0,.08,0,.12,0,.17.02.34.05.51.07.03,0,.07.01.1.04.05.05.02.13,0,.2-.08.31.14.64.43.78.29.14.63.11.94.03.41-.11.8-.34,1.04-.7.24-.35.3-.84.09-1.21-.09-.16-.24-.31-.22-.5,0-.11.08-.21.15-.29.09-.09.2-.16.32-.18.24-.02.44.18.55.39.16.3.22.65.23.99.02.39-.02.79-.21,1.13-.2.37-.55.64-.92.85-.66.36-1.51.58-2.24.29-.65-.25-1.08-.96-1.03-1.65ZM871.75,125.83c.06.03.07.09.08.15.05.38-.1.78-.39,1.03-.05.04-.11.09-.18.12-.36.2-.9.29-1.12-.1-.05-.09-.07-.2-.02-.3.05-.1.15-.16.24-.22.4-.23.8-.45,1.21-.67.05-.03.12-.06.17-.03ZM869.68,125.99c-.88.19-2-.59-2.17-1.48-.16-.87.27-1.74,1.21-2.31.44-.26,1.02-.4,1.66-.27,1.27.26,1.85,1.44,1.26,2.59-.41.8-1.09,1.27-1.96,1.46ZM866.82,124.51c-.23.02-.47.04-.7.06-.24.03-.31-.04-.29-.29.05-.51.19-.61.68-.46.18.06.36.15.47.19.18.31.1.47-.16.49ZM874.57,121.61c-.12.61-.2,1.23-.36,1.83-.1.4-.51.44-.85.45-.29,0-.59-.09-.87-.16-.06-.02-.11-.15-.14-.24-.02-.04.02-.1.03-.16.11-.46.11-.47.56-.38.27.05.48,0,.58-.29.08-.25.17-.49.26-.74.06-.16-.01-.26-.17-.3-.32-.08-.65-.16-.97-.24-.2-.05-.3.05-.35.23-.04.16-.09.31-.14.49-.15-.03-.27-.04-.38-.07-.36-.09-.48-.29-.46-.66.03-.78.72-1.08,1.24-.91.56.18,1.12.37,1.67.56.28.09.42.28.36.58ZM881.82,114.12c4.16-2.48,8.32-4.96,12.48-7.44.37-.22.74-.43,1.11-.63.1-.06.25-.1.36-.08.68.17,1.35.35,2.02.54.05.01.09.05.19.11-.14.1-.24.18-.34.25-5.22,3.2-10.43,6.4-15.65,9.6-2.22,1.36-4.45,2.7-6.67,4.05-.21.13-.41.17-.64.09-.21-.07-.41-.14-.62-.2-.52-.16-1.03-.32-1.55-.49-.05-.02-.1-.04-.22-.08.2-.12.35-.21.5-.31,3.01-1.8,6.02-3.61,9.03-5.41ZM865.36,123.4c-.34-.02-.63-.15-.85-.42-.56-.69-.92-1.49-.95-2.36-.05-1.21.2-2.36,1.27-3.13.51-.37,1.06-.69,1.61-1.01.66-.37,1.37-.34,2.09-.21,1.02.18,1.94.56,2.58,1.41.41.55.71,1.16.8,1.85.02.17.07.4-.15.47-.22.06-.27-.17-.34-.31-.17-.35-.31-.71-.49-1.06-.66-1.32-1.86-1.95-3.33-1.76-1.95.25-3.36,1.79-3.36,3.66,0,.54.14,1.06.36,1.55.01.03.02.06.04.09,0,0,0,0,0,.01.04.08.08.17.12.25.02.03.04.06.07.09.41.62.89.78.89.78-.15.05-.26.11-.36.11ZM866.25,123.23c-.29-.32-.45-.74-.47-1.17-.02-.61.23-1.2.63-1.66.32-.36.73-.65,1.2-.77.46-.13.96-.1,1.41.04.46.14.88.38,1.26.67.15.11.3.24.39.41.09.17.1.39-.01.54-.14.2-.45.21-.67.1-.22-.11-.37-.31-.52-.51-.15-.19-.3-.4-.53-.5-.3-.14-.65-.08-.95.05-.63.27-1.13.81-1.34,1.46-.04.12-.07.25-.03.36.06.18.26.26.4.38.08.07.14.16.17.26.04.12.04.24,0,.36-.06.18-.29.37-.5.32-.16-.04-.35-.25-.45-.36ZM867.1,121.86c.02-.16.12-.3.21-.42.22-.28.5-.54.85-.64s.77,0,.96.3c.03.05.06.1.04.16-.01.03-.04.06-.06.08-.16.15-.35.27-.53.38-.07.04-.13.08-.2.12-.15.09-.31.19-.46.28-.3.18-.9.3-.81-.26ZM860.3,128.44s0,.02.01.04c.41-.54.97-1.23,1.48-1.75.02-.03.05-.06.07-.09.01-.02.11-.11.24-.22,0,0,0,0,0,0,.59-.54,1.51-1.44,2.34-2.03,0-.03.67-.51,1.13-.56,0,0-.16,1.93.16,2.47,0,0,0,0,0,0l-.14.1s0,0,0,0l-.3.21s0,0,0,0l-1.25.87s0,0,0,0l-.47.33s0,0,0,0l-.54.38s0,0,0,0l-.32.22s0,0,0,0l-1.26.87s0,0,0,0l-.26.18s0,0,0,0l-.53.37s0,0,0,0l-.33.23s0,0,0,0l-.32.22h0s0-.01,0-.01c-.13-.21-.24-.4-.36-.6,0,0-.06,0-.03-.12,0-.03,0-.06.02-.08.03-.04.06-.09.09-.13.02-.03.04-.06.06-.09.02-.03.04-.06.06-.09.16-.24.32-.48.49-.71ZM855.28,134.57c-.58.36-1.4.37-1.82-.35-.29-.5-.09-1.37.42-1.7.52-.33,1.43-.14,1.75.37.35.56.19,1.34-.35,1.68ZM861.03,133.65c.35.59.15,1.49-.41,1.84-.58.36-1.45.09-1.85-.57-.37-.44-.11-1.3.48-1.66.59-.35,1.45-.17,1.78.38ZM859.3,132.58c-.2.38-.59.53-.98.61-1,.2-2.43-.43-2.48-1.94-.03-.94,1.03-2.19,2.36-1.89.26.06.54.12.77.26.17.1.27.32.4.49.58.84.37,1.66-.06,2.47ZM868.6,129.95c-.35-.51-.63-1.03-.78-1.63-.04-.15-.05-.31-.04-.46.02-.19.18-.3.35-.26.12.03.3.16.31.26.07.68.27,1.29.79,1.76.62.57,1.36.88,2.19.99,2.03.27,3.4-1.28,3.73-2.76.21-.92.06-1.74-.49-2.49-.26-.36-.52-.71-.78-1.07.36-.18.61-.17.87.12,1.01,1.1,1.5,2.5.88,4.03-.42,1.04-1.1,1.86-2.07,2.48-1.29.82-3.87.63-4.97-.97Z"/>
            </g>
          </g>
          <g>
            <path class="cls-2" d="M900.77,87.91c-.19,0-.29-.08-.19-.3.29-.68.09-1.1-.61-1.32-.24-.07-.32-.28-.14-.44.11-.1.3-.13.46-.17.12-.03.24-.03.37-.04,0-.03,0-.05,0-.08-.27-.16-.56-.17-.85-.08-.91.28-1.26,1.29-.77,2.2.46.84,1.85,1.01,2.48.29.11-.12.23-.26.11-.49-.07.07-.14.11-.18.17-.17.25-.42.27-.67.26Z"/>
            <path class="cls-2" d="M906.53,97.88c-.41.34-.54.97-.33,1.46.21.49.75.81,1.28.79.37-.01.72-.19.98-.46.11-.12.21-.26.27-.41.02-.06.02-.41.03-.48,0,0,0,0,0-.01-.23.18-.35.51-.62.6-.19.07-.41,0-.56-.14-.15-.13-.24-.32-.32-.5-.09-.24-.14-.56.07-.73.24-.19.6,0,.89-.08.03,0,.07-.02.08-.06.01-.04-.03-.08-.07-.1-.53-.28-1.24-.29-1.7.1Z"/>
            <path class="cls-2" d="M903.81,100.49c-.25.16-.36.46-.24.64.15.23.51.28.78.11.24-.15.38-.46.27-.64-.12-.22-.56-.28-.81-.11Z"/>
            <path class="cls-2" d="M910.84,97.03c.17-.09.27-.46.18-.63-.1-.19-.42-.28-.62-.18-.24.12-.32.4-.19.65.12.22.38.29.63.16Z"/>
            <path class="cls-2" d="M909.55,101.57c-.24.14-.35.47-.23.68.14.24.47.33.7.19.27-.16.39-.54.24-.77-.12-.19-.48-.24-.72-.1Z"/>
            <path class="cls-2" d="M908.38,81.6c-.22,0-.44.09-.66.13-.09.01-.23,0-.28-.05-.54-.57-1.21-.92-1.89-1.26-1.05-.52-2.14-.67-3.27-.26-.39.14-.76.33-1.14.52-.2.1-.31.09-.44-.12-.35-.56-.73-1.1-1.08-1.67-4.05-6.55-8.09-13.11-12.13-19.66-.25-.41-.5-.82-.77-1.22-.07-.11-.24-.19-.37-.21-.46-.07-.92-.07-1.37-.15-.85-.16-1.7-.35-2.57-.54-.03.08-.06.17-.08.25-.35,1.18-.7,2.37-1.07,3.55-.05.15-.03.31.05.45,4.46,7.43,8.93,14.87,13.38,22.31.33.55.41.45-.22.8-2.16,1.2-3.17,3.23-2.82,5.66.04.24.02.4-.23.53-.2.11-.4.28-.32.57.09.3.36.52.66.46.41-.09.66.11.9.36.65.66,1.43,1.12,2.31,1.38,1.57.47,3.05.26,4.39-.7.46-.34.45-.36.82.08,0,0,.01.01.02.02,1.37,1.75,2.97,3.25,4.77,4.53.13.09.25.32.24.47-.02.45-.11.89-.17,1.36-.54-.14-1.12-.27-1.67,0-.57.28-.87.8-1,1.39-.18.78.36,1.66,1.09,1.88.5.15.98.1,1.46-.11.66-.29.91-.88,1.07-1.53.15.06.27.11.4.15.46.15.92.34,1.43.19.45-.13.5-.09.39.37-.18.79.15,1.59.82,1.97.65.37,1.51.22,2.11-.36.59-.74.38-1.61.25-1.89-.3-.69-.88-.92-1.57-.99-.06,0-.11-.01-.16-.02-.07,0-.11-.08-.09-.14.16-.59.31-1.15.46-1.7.28-.02.63.01.94-.08.87-.27,1.38-1.07,1.35-1.99-.02-.55-.27-.95-.75-1.2-.57-.29-1.15-.31-1.72,0-.58.31-.95.78-1.04,1.47-.33-.07-.64-.13-.96-.19-.03-.29-.05-.54-.08-.79-.19-1.63-.4-3.26-1.05-4.79-.25-.58-.49-1.17-.73-1.76-.06-.15-.05-.25.12-.35,1.03-.61,1.92-1.34,2.15-2.61.04-.2.08-.39.14-.58.26-.83.18-1.65-.03-2.47-.02-.09.05-.22.11-.31.04-.06.14-.09.2-.14.22-.17.29-.4.23-.65-.07-.25-.27-.38-.51-.37ZM904.9,101.85c-.67.41-1.56.34-1.88-.16-.45-.71-.28-1.57.39-1.99.69-.43,1.47-.23,1.91.5.35.57.16,1.29-.42,1.65ZM901.9,90.18c.11-.04.21-.11.3-.18.14-.11.16-.23,0-.36-.15-.13-.3-.26-.44-.4-.04-.04-.08-.14-.06-.19.02-.05.11-.09.17-.1.61-.08,1.12.44,1.03,1.05,0,.05-.02.11-.05.15-.22.39-1.05.74-1.48.63-.19-.05-.33-.15-.33-.37,0-.25-.02-.51-.01-.76,0-.1.05-.2.08-.3.04,0,.08,0,.12-.01.07.2.15.39.2.6.07.27.19.35.45.24ZM902.49,88.81c-.11-.06-.26-.21-.24-.29.04-.2.16-.41.41-.4.23.01.47.05.68.14.28.12.28.51-.02.71-.07,0-.2.05-.32.02-.17-.04-.35-.1-.5-.19ZM903.02,87.88c-.09,0-.19-.03-.22-.11,0,0,0-.02,0-.03,0-.04,0-.08,0-.12.02-.17.05-.34.07-.51,0-.03.01-.07.04-.1.05-.05.13-.02.2,0,.31.08.64-.14.78-.43.14-.29.11-.63.03-.94-.11-.41-.34-.8-.7-1.04-.35-.24-.84-.3-1.21-.09-.16.09-.31.24-.5.22-.11,0-.21-.08-.29-.15-.09-.09-.16-.2-.18-.32-.02-.24.18-.44.39-.55.3-.16.65-.22.99-.23.39-.02.79.02,1.13.21.37.2.64.55.85.92.36.66.58,1.51.29,2.24-.25.65-.96,1.08-1.65,1.03ZM902.04,84.83c.03-.06.09-.07.15-.08.38-.05.78.1,1.03.39.04.05.09.11.12.18.2.36.29.9-.1,1.12-.09.05-.2.07-.3.02-.1-.05-.16-.15-.22-.24-.23-.4-.45-.8-.67-1.21-.03-.05-.06-.12-.03-.17ZM902.2,86.9c.19.88-.59,2-1.48,2.17-.87.16-1.74-.27-2.31-1.21-.26-.44-.4-1.02-.27-1.66.26-1.27,1.44-1.85,2.59-1.26.8.41,1.27,1.09,1.46,1.96ZM900.72,89.76c.02.23.04.47.06.7.03.24-.04.31-.29.29-.51-.05-.61-.19-.46-.68.06-.18.15-.36.19-.47.31-.18.47-.1.49.16ZM897.82,82.01c.61.12,1.23.2,1.83.36.4.1.44.51.45.85,0,.29-.09.59-.16.87-.02.06-.15.11-.24.14-.04.02-.1-.02-.16-.03-.46-.11-.47-.11-.38-.56.05-.27,0-.48-.29-.58-.25-.08-.49-.17-.74-.26-.16-.06-.26.01-.3.17-.08.32-.16.65-.24.97-.05.2.05.3.23.35.16.04.31.09.49.14-.03.15-.04.27-.07.38-.09.36-.29.48-.66.46-.78-.03-1.08-.72-.91-1.24.18-.56.37-1.12.56-1.67.09-.28.28-.42.58-.36ZM890.33,74.76c-2.48-4.16-4.96-8.32-7.44-12.48-.22-.37-.43-.74-.63-1.11-.06-.1-.1-.25-.08-.36.17-.68.35-1.35.54-2.02.01-.05.05-.09.11-.19.1.14.18.24.25.34,3.2,5.22,6.4,10.43,9.6,15.65,1.36,2.22,2.7,4.45,4.05,6.67.13.21.17.41.09.64-.07.21-.14.41-.2.62-.16.52-.32,1.03-.49,1.55-.02.05-.04.1-.08.22-.12-.2-.21-.35-.31-.5-1.8-3.01-3.61-6.02-5.41-9.03ZM899.61,91.22c-.02.34-.15.63-.42.85-.69.56-1.49.92-2.36.95-1.21.05-2.36-.2-3.13-1.27-.37-.51-.69-1.06-1.01-1.61-.37-.66-.34-1.37-.21-2.09.18-1.02.56-1.94,1.41-2.58.55-.41,1.16-.71,1.85-.8.17-.02.4-.07.47.15.06.22-.17.27-.31.34-.35.17-.71.31-1.06.49-1.32.66-1.95,1.86-1.76,3.33.25,1.95,1.79,3.36,3.66,3.36.54,0,1.06-.14,1.55-.36.03-.01.06-.02.09-.04,0,0,0,0,.01,0,.08-.04.17-.08.25-.12.03-.02.06-.04.09-.07.62-.41.78-.89.78-.89.05.15.11.26.11.36ZM899.44,90.33c-.32.29-.74.45-1.17.47-.61.02-1.2-.23-1.66-.63-.36-.32-.65-.73-.77-1.2-.13-.46-.1-.96.04-1.41.14-.46.38-.88.67-1.26.11-.15.24-.3.41-.39.17-.09.39-.1.54.01.2.14.21.45.1.67-.11.22-.31.37-.51.52-.19.15-.4.3-.5.53-.14.3-.08.65.05.95.27.63.81,1.13,1.46,1.34.12.04.25.07.36.03.18-.06.26-.26.38-.4.07-.08.16-.14.26-.17.12-.04.24-.04.36,0,.18.06.37.29.32.5-.04.16-.25.35-.36.45ZM898.07,89.48c-.16-.02-.3-.12-.42-.21-.28-.22-.54-.5-.64-.85s0-.77.3-.96c.05-.03.1-.06.16-.04.03.01.06.04.08.06.15.16.27.35.38.53.04.07.08.13.12.2.09.15.19.31.28.46.18.3.3.9-.26.81ZM904.65,96.28s.02,0,.04-.01c-.54-.41-1.23-.97-1.75-1.48-.03-.02-.06-.05-.09-.07-.02-.01-.11-.11-.22-.24,0,0,0,0,0,0-.54-.59-1.44-1.51-2.03-2.34-.03,0-.51-.67-.56-1.13,0,0,1.93.16,2.47-.16,0,0,0,0,0,0l.1.14s0,0,0,0l.21.3s0,0,0,0l.87,1.25s0,0,0,0l.33.47s0,0,0,0l.38.54s0,0,0,0l.22.32s0,0,0,0l.87,1.26s0,0,0,0l.18.26s0,0,0,0l.37.53s0,0,0,0l.23.33s0,0,0,0l.22.32h0s-.01,0-.01,0c-.21.13-.4.24-.6.36,0,0,0,.06-.12.03-.03,0-.06,0-.08-.02-.04-.03-.09-.06-.13-.09-.03-.02-.06-.04-.09-.06-.03-.02-.06-.04-.09-.06-.24-.16-.48-.32-.71-.49ZM910.78,101.3c.36.58.37,1.4-.35,1.82-.5.29-1.37.09-1.7-.42-.33-.52-.14-1.43.37-1.75.56-.35,1.34-.19,1.68.35ZM909.86,95.54c.59-.35,1.49-.15,1.84.41.36.58.09,1.45-.57,1.85-.44.37-1.3.11-1.66-.48-.35-.59-.17-1.45.38-1.78ZM908.79,97.28c.38.2.53.59.61.98.2,1-.43,2.43-1.94,2.48-.94.03-2.19-1.03-1.89-2.36.06-.26.12-.54.26-.77.1-.17.32-.27.49-.4.84-.58,1.66-.37,2.47.06ZM906.16,87.98c-.51.35-1.03.63-1.63.78-.15.04-.31.05-.46.04-.19-.02-.3-.18-.26-.35.03-.12.16-.3.26-.31.68-.07,1.29-.27,1.76-.79.57-.62.88-1.36.99-2.19.27-2.03-1.28-3.4-2.76-3.73-.92-.21-1.74-.06-2.49.49-.36.26-.71.52-1.07.78-.18-.36-.17-.61.12-.87,1.1-1.01,2.5-1.5,4.03-.88,1.04.42,1.86,1.1,2.48,2.07.82,1.29.63,3.87-.97,4.97Z"/>
          </g>
        </g>
      </g>
      <g>
        <path class="cls-3" d="M1001.33,144.02l-23.11-83.52c-.71-2.58-3.39-4.1-5.97-3.38l-139.41,38.57c-1.25.35-2.29,1.16-2.93,2.28-.64,1.13-.8,2.44-.45,3.69l23.11,83.52c.18.65.48,1.24.89,1.75.38.47.85.87,1.39,1.18,1.13.64,2.44.8,3.69.45l139.41-38.57c2.58-.71,4.1-3.39,3.38-5.97Z"/>
        <path class="cls-1" d="M1005.03,149.98c.64-1.13.8-2.44.45-3.69l-23.11-83.52c-.35-1.25-1.16-2.29-2.28-2.93-1.13-.64-2.44-.8-3.69-.45l-139.41,38.57c-1.25.35-2.29,1.16-2.93,2.28-.64,1.13-.8,2.44-.45,3.69l23.11,83.52c.18.65.48,1.24.89,1.75.38.47.85.87,1.39,1.18,1.13.64,2.44.8,3.69.45l139.41-38.57c1.25-.35,2.29-1.16,2.93-2.28Z"/>
        <path class="cls-2" d="M859.72,184.94c-.49-.61-.86-1.32-1.07-2.1l-21.02-75.96c-.85-3.09.96-6.3,4.05-7.15l131.6-36.41c3.09-.85,6.3.96,7.15,4.05l21.02,75.96c.41,1.5.22,3.06-.54,4.42-.77,1.35-2.01,2.32-3.51,2.74l-131.6,36.41c-1.5.41-3.06.22-4.42-.54-.65-.37-1.21-.85-1.67-1.41ZM978.66,65.85c-.38-.48-.86-.88-1.41-1.19-1.14-.65-2.46-.81-3.73-.46l-131.6,36.41c-2.61.72-4.14,3.43-3.42,6.04l21.02,75.96c.35,1.26,1.17,2.31,2.31,2.96,1.14.65,2.46.81,3.73.46l131.6-36.41c1.26-.35,2.31-1.17,2.96-2.31.65-1.14.81-2.46.46-3.73l-21.02-75.96c-.18-.66-.49-1.25-.9-1.77Z"/>
        <path class="cls-2" d="M968.18,77.12c-.14.04-.25.11-.33.22-.08.11-.12.24-.11.38l.02.34-.11.03-.73-2.65.11-.03.15.3c.07.13.16.22.29.27.13.05.26.06.39.02l5.77-1.6c.17-.05.3-.14.38-.29.08-.15.1-.31.05-.48l-.19-.69.16-.04,1.09,2.27-6.96,1.93Z"/>
        <path class="cls-2" d="M870.85,172.89c.14-.04.25-.11.33-.22.08-.11.12-.24.11-.38l-.02-.34.11-.03.73,2.65-.11.03-.15-.3c-.07-.13-.16-.22-.29-.27-.13-.05-.26-.06-.39-.02l-5.77,1.6c-.17.05-.3.14-.38.29-.08.15-.1.31-.05.48l.19.69-.16.04-1.09-2.27,6.96-1.93Z"/>
        <path class="cls-4" d="M870.89,168.49c.26-.32.49-.67.71-1.03.64-1.03,1.21-2.1,1.9-3.09,1.29-1.85,2.61-3.68,4-5.45.85-1.08,1.75-2.15,2.8-3.01,1.66-1.36,3.51-2.49,5.22-3.79,2.12-1.61,4.48-2.76,6.93-3.74,1.84-.74,3.69-1.45,5.55-2.13,1.35-.49,2.72-.92,4.1-1.34,1.43-.44,2.88-.82,4.32-1.23,1-.29,1.99-.65,3-.87,1.81-.4,3.66-.66,5.46-1.08,4.38-1.02,8.75-2.09,13.11-3.16,2.26-.56,4.51-1.16,6.77-1.74,3.65-.94,7.25-2.02,10.75-3.42.92-.37,3.25-1.29,3.47-1.38,2.07-.91,4.16-1.78,6.18-2.79,3.21-1.6,6.33-3.35,8.98-5.81,2.77-2.57,5.68-5.01,7.92-8.09.85-1.16,1.73-2.3,2.48-3.52.63-1.02,1.14-2.13,1.59-3.24,1.35-3.38,1.54-6.87.82-10.42-.37-1.83-1.38-3.35-2.36-4.87-1.61-2.49-3.87-4.3-6.45-5.64-2.06-1.07-4.33-1.63-6.64-2-3.36-.55-6.63-.06-9.84.87-2.26.65-4.47,1.48-6.71,2.24-2.67.9-5.37,1.73-7.82,3.18-.99.59-1.99,1.17-3.01,1.69-2.34,1.2-4.51,2.64-6.49,4.36-3.73,3.23-7.41,6.52-11.17,9.72-1.58,1.35-3.3,2.55-4.95,3.82-3.48,2.7-6.95,5.41-10.44,8.09-3.53,2.71-7.15,5.3-11.08,7.41-3.23,1.73-6.48,3.43-9.77,5.04-3,1.47-6.06,2.83-9.11,4.2-1.75.79-2.88,2.14-3.57,3.85-1.36,3.37-2.31,6.84-2.45,10.5-.11,2.77.03,5.51.57,8.23.45,2.27.88,4.56,1.98,6.63.57,1.08,1.27,2.11,2.02,3.07.46.59.72.51,1.19-.07ZM962.32,87.78c2.48.28,4.75,1.22,6.84,2.56.55.36.96.96,1.53,1.27.93.5,1.46,1.36,2.11,2.11.14.16.26.32.39.48-3.92,7.39-37.85,26.32-45.55,30.55-.67.3-1.11.19-1.69-.48.34-.24.67-.48,1.02-.69,1.33-.79,2.76-1.45,3.96-2.4,1.25-.98,2.5-1.99,3.4-3.39.63-.97,1.5-1.79,2.3-2.65.52-.56.51-.74-.14-1.14-.69-.43-1.37-.88-2.05-1.34-.37-.25-.4-.53-.05-.86.67-.65,6.67-6.82,7.06-7.28.66-.76,1.27-1.51,2.28-1.9,1.21-.46,1.28-.84.68-2.03-.14-.28-.29-.56-.43-.84-.54-1.11-.42-1.74.48-2.61.06-.06,1.2-1.53,1.7-2.21.54-.73,3.26-3.29,3.99-3.89.71-.58,1.47-1.1,2.22-1.64.49-.35.98-.7,1.48-1.04.13-.09.31-.12.46-.16.16-.04.34-.03.49-.1,2.46-1.13,5-.6,7.51-.32ZM950.77,88.64s.02,0,.04,0c-3.09,2.36-5.87,5.13-8.23,8.23-.58.76-1.13,1.83-.56,2.58.31.4.91.68.87,1.18-.03.38-.42.61-.76.81-2.18,1.27-3.36,3.69-4.99,5.62-2.06,2.45-4.96,4.18-8.1,4.82,1.78.25,3.51.9,5.02,1.89.2.13.41.29.47.52.05.21-.05.42-.15.62-1.94,3.78-5.4,6.74-9.42,8.09-.76.25-1.61.5-2.03,1.18.6.32,1.19.64,1.79.96.16.09.34.2.39.38.05.19-.08.38-.21.53-3.22,4.1-6.79,8.43-11.81,9.81l1.18,1.08c-1.68,2.83-4.84,4.44-7.99,5.39-2.52.76-5.12,1.19-7.63,1.99-.33.1-1.04.55-1.3.12-.27-.45.53-.86.81-1.1,1.01-.86,2.02-1.71,3.01-2.59,8.16-7.3,14.17-16.63,20.48-25.58,6.3-8.95,13.2-17.83,22.48-23.64,2.06-1.29,4.26-2.43,6.65-2.89ZM913.55,111.75c-.04-.17-.02-.35.12-.41.08-.04.17-.02.26-.02.28,0,.53-.17.76-.33.81-.57,1.61-1.14,2.42-1.71.15.25.1.56.04.85-.23,1.05-.58,2.07-1.04,3.03-.09.18-.18.37-.33.5-.82.7-1.93-1.16-2.18-1.74-.02-.05-.04-.1-.05-.16ZM914.07,114.86c.83.98,1.66,1.97,2.5,2.95.67-2.34,1.35-4.68,2.02-7.02.38-1.33.77-2.67,1.51-3.84.81-1.27,1.98-2.24,3.14-3.2,6.12-5.05,12.46-10.21,20.06-12.51-13.26,8.92-22.09,22.85-31.18,35.99-2.84,4.11-5.76,8.2-9.35,11.68-2.94,2.86-6.29,5.26-9.78,7.4-1.73,1.06-3.51,2.06-5.3,3.03-.92.5-1.84.98-2.76,1.47-.58.31-1.89,1.3-2.52,1.15,1.1-1.79,2.7-3.42,4.01-5.07,1.47-1.84,2.95-3.7,4.07-5.77,1.13-2.09,1.89-4.36,2.63-6.62.83,1.02,1.66,2.05,2.49,3.07.92-3.1,1.83-6.2,2.75-9.31.3-1.01.62-2.07,1.37-2.81s2.05-1.04,2.85-.35c.52.45.69,1.19,1.05,1.78s1.18,1.07,1.72.63c.23-.18.33-.48.43-.76,1.5-4.58,3.09-9.67,7.23-12.13.16-.09.33-.18.51-.16.22.02.39.21.53.38l.02.02ZM875.93,135.69c11.47-4.61,22.22-11.02,31.72-18.92-1.05,2.79-2.1,5.57-3.15,8.36l-2.22-2.47c-.13-.15-.28-.3-.47-.34-.18-.04-.36.04-.53.12-2.06,1.03-3.41,3.09-4.25,5.23s-1.26,4.42-2.02,6.59c-.6-.56-1.2-1.11-1.8-1.67-.15-.14-.31-.29-.52-.32-.46-.08-.79.44-.93.89-.46,1.5-.34,3.18-1.05,4.58-.53,1.06-1.48,1.84-2.42,2.57-2.67,2.05-6.19,5.02-9.47,5.92.31-3.62-.03-7.04-3.17-9.46-.15-.12-.32-.25-.34-.44-.04-.31.31-.52.6-.64,0,0,.01,0,.02,0ZM869.62,165.52c-.11-.2-.4-.59-.44-.58-.18-.72-.35-1.44-.56-2.15-.36-1.26-.81-2.49-1.09-3.76-.35-1.62-.65-3.27-.82-4.91-.1-.93.1-1.9.15-2.85.02-.32,0-.64,0-.96-.01-1.22.09-2.4.34-3.61.5-2.47,1.45-4.75,2.57-6.97.08-.17.19-.32.28-.49.28-.55.44-1.18,1.14-1.41.97-.31,1.94-.38,2.95-.22,1.07.16,1.64.96,2.05,1.74.52.99.74,2.15,1.07,3.24.16.54.36,1.09.37,1.63.01.6-.19,1.2-.28,1.8-.17,1.1-.32,2.21-.52,3.31-.09.49-.27.95-.41,1.43-.27.88-.54,1.76-.81,2.65-.05.16-.11.31-.14.48-.48,2.14-1.24,4.16-2.31,6.09-.82,1.48-1.48,3.06-2.22,4.59-.16.34-.29.7-.5,1.01-.3.46-.55.43-.82-.04Z"/>
      </g>
      <g>
        <path class="cls-3" d="M996.15,214.3l-1.13-86.65c-.02-1.3-.54-2.51-1.47-3.41-.93-.9-2.15-1.39-3.45-1.38l-144.64,1.88c-2.68.03-4.82,2.24-4.79,4.91l1.13,86.66c.01,1.1.39,2.13,1.06,2.97.12.15.26.3.4.44.93.9,2.15,1.39,3.45,1.38l144.64-1.88c2.67-.03,4.82-2.24,4.79-4.91Z"/>
        <path class="cls-1" d="M999.59,217.55l-1.12-86.65c-.02-1.3-.54-2.51-1.47-3.41-.93-.9-2.15-1.39-3.45-1.38l-144.64,1.88c-2.68.03-4.82,2.24-4.79,4.91l1.13,86.66c.01,1.1.39,2.13,1.06,2.97.12.15.26.3.4.44.93.9,2.15,1.39,3.45,1.38l144.64-1.88c2.68-.03,4.82-2.24,4.79-4.91Z"/>
        <path class="cls-2" d="M849.57,219.15c-.79-.98-1.26-2.21-1.28-3.56l-1.02-78.81c-.02-1.55.57-3.02,1.65-4.13,1.08-1.11,2.54-1.74,4.09-1.76l136.53-1.77c1.55-.02,3.02.57,4.13,1.65,1.11,1.08,1.74,2.53,1.76,4.09l1.02,78.81c.04,3.2-2.53,5.85-5.74,5.89l-136.53,1.77c-1.86.02-3.52-.83-4.61-2.17ZM993.44,131.87c-.12-.16-.26-.3-.4-.44-.94-.91-2.18-1.41-3.49-1.39l-136.53,1.77c-1.31.02-2.54.54-3.45,1.48-.91.94-1.41,2.18-1.39,3.49l1.02,78.81c.04,2.7,2.26,4.88,4.97,4.84l136.53-1.77c2.7-.04,4.88-2.26,4.84-4.97l-1.02-78.81c-.01-1.11-.39-2.15-1.08-3Z"/>
        <path class="cls-2" d="M981.09,141.17c-.14,0-.27.05-.37.13-.11.09-.17.2-.2.34l-.06.34h-.11s-.04-2.74-.04-2.74h.11s.07.33.07.33c.03.14.1.25.21.34.11.08.23.13.38.12l5.98-.08c.18,0,.33-.06.44-.18.12-.12.18-.27.17-.45v-.71s.16,0,.16,0l.48,2.47-7.22.09Z"/>
        <path class="cls-2" d="M862.62,209.07c.14,0,.27-.05.37-.13.11-.09.17-.2.2-.34l.06-.34h.11s.04,2.74.04,2.74h-.11s-.07-.33-.07-.33c-.03-.14-.1-.25-.21-.34-.11-.08-.23-.13-.38-.12l-5.98.08c-.18,0-.33.06-.44.18-.12.12-.18.27-.17.45v.71s-.16,0-.16,0l-.48-2.47,7.22-.09Z"/>
        <g>
          <path class="cls-2" d="M900.16,179.66c.14-.46.39-.65.87-.27,1.47,1.19,2.65.99,3.7-.59.35-.53.91-.59,1.19-.02.18.35.12.83.11,1.25,0,.31-.1.62-.16.93.07.01.14.03.2.04.58-.55.8-1.26.78-2.05-.05-2.45-2.29-4.02-4.89-3.44-2.4.54-3.8,3.87-2.47,5.93.23.36.48.75,1.13.62-.11-.22-.17-.42-.3-.56-.49-.58-.37-1.22-.17-1.85Z"/>
          <path class="cls-2" d="M871.46,186.86c-.56-1.25-2.01-2.03-3.36-1.85-1.36.18-2.54,1.28-2.86,2.61-.22.92-.04,1.92.44,2.74.21.36.48.71.82.95.14.1,1,.34,1.15.41.01,0,.02.01.02.02-.28-.7-1.01-1.22-1.05-1.97-.03-.51.3-1,.73-1.28.43-.28.95-.38,1.46-.43.67-.06,1.49.06,1.75.68.3.73-.42,1.48-.44,2.26,0,.09.01.19.09.23.1.06.22-.03.29-.11,1.06-1.13,1.59-2.85.96-4.26Z"/>
          <path class="cls-2" d="M866.93,178.32c-.22-.74-.88-1.22-1.42-1.05-.67.22-1.05,1.07-.83,1.85.2.71.88,1.26,1.4,1.13.62-.15,1.07-1.18.85-1.93Z"/>
          <path class="cls-2" d="M870.52,198.1c.1.47.94,1,1.42.89.54-.12.99-.83.87-1.41-.13-.68-.75-1.07-1.47-.92-.64.13-.98.73-.83,1.44Z"/>
          <path class="cls-2" d="M860.2,191.73c-.18-.7-.92-1.21-1.51-1.05-.69.19-1.15.94-.97,1.61.21.77,1.07,1.35,1.73,1.15.55-.16.92-1.02.74-1.7Z"/>
          <path class="cls-2" d="M910.37,202.92c.13-.55.07-1.15.15-1.72.03-.24.15-.57.32-.66,1.78-.92,3.13-2.35,4.44-3.79,2.02-2.22,3.16-4.83,2.96-7.89-.07-1.06-.28-2.12-.48-3.18-.1-.55.01-.84.6-1,1.64-.46,3.24-1.03,4.88-1.49,19.04-5.38,38.08-10.74,57.12-16.11,1.19-.34,2.39-.65,3.55-1.05.31-.11.63-.45.77-.77.48-1.08.81-2.23,1.34-3.29.99-2,2.08-3.95,3.14-5.96-.19-.13-.37-.26-.56-.38-2.67-1.71-5.35-3.4-8.01-5.13-.34-.22-.76-.29-1.15-.18-21.51,5.79-43.03,11.57-64.54,17.34-1.58.42-1.41.68-1.83-1.12-1.45-6.17-5.75-10.12-12.01-10.95-.62-.08-1-.24-1.14-.94-.12-.58-.4-1.2-1.17-1.18-.82.02-1.55.52-1.6,1.3-.07,1.07-.74,1.54-1.53,1.97-2.09,1.14-3.76,2.75-5.04,4.74-2.28,3.55-2.8,7.36-1.36,11.35.5,1.38.58,1.36-.78,1.97-.02,0-.04.02-.06.03-5.28,2.14-10.12,5.03-14.57,8.6-.32.26-.96.39-1.34.26-1.09-.37-2.12-.89-3.23-1.38.71-1.24,1.47-2.56,1.17-4.14-.3-1.6-1.35-2.7-2.72-3.45-1.8-.98-4.34-.28-5.4,1.36-.73,1.13-.95,2.35-.76,3.67.26,1.83,1.52,2.85,3.02,3.73-.25.32-.47.58-.66.87-.7,1.04-1.48,2.04-1.48,3.4,0,1.22-.13,1.29-1.2.7-1.83-1-4.05-.74-5.44.63-1.37,1.34-1.61,3.57-.58,5.46,1.43,1.98,3.7,2.07,4.5,1.96,1.92-.26,2.9-1.51,3.55-3.17.05-.13.11-.26.16-.39.07-.16.27-.22.42-.13,1.34.81,2.62,1.58,3.87,2.34-.15.72-.48,1.55-.45,2.38.06,2.35,1.66,4.16,3.96,4.73,1.37.34,2.54,0,3.5-1.01,1.12-1.2,1.57-2.62,1.21-4.25-.36-1.64-1.25-2.89-2.89-3.61.4-.78.76-1.5,1.15-2.25.73.13,1.37.26,2.01.37,4.16.69,8.33,1.31,12.58.78,1.62-.2,3.24-.38,4.86-.57.42-.05.64.06.77.55.79,2.97,1.96,5.69,4.93,7.15.46.23.91.48,1.35.76,1.88,1.22,3.95,1.62,6.12,1.66.24,0,.5.27.69.48.13.14.12.4.19.59.25.66.77,1.01,1.45,1.02.66.01,1.13-.4,1.28-1.01ZM862.79,180.03c-.55-1.95.27-4.09,1.73-4.53,2.07-.62,4.08.41,4.63,2.37.57,2.02-.48,3.79-2.58,4.37-1.65.45-3.3-.51-3.78-2.21ZM893.75,180.85c.03.3.12.6.23.87.17.42.45.57.88.28.42-.29.86-.56,1.31-.8.14-.07.4-.1.5-.01.11.09.15.34.13.5-.23,1.57-1.89,2.46-3.31,1.8-.12-.06-.25-.13-.35-.22-.8-.81-1.08-3.11-.5-4.1.26-.44.59-.71,1.14-.56.63.17,1.26.31,1.88.51.24.08.45.27.67.41-.02.1-.04.2-.06.31-.54.03-1.08.09-1.61.08-.72-.01-.99.23-.91.94ZM896.7,183.28c.24-.22.71-.49.9-.4.46.24.9.69.69,1.29-.19.56-.46,1.12-.83,1.57-.5.61-1.47.34-1.74-.56.04-.19.03-.53.17-.8.21-.4.48-.8.81-1.11ZM898.63,185.25c.08-.21.2-.44.42-.47.02,0,.05,0,.07,0,.1,0,.2.05.29.09.41.18.81.36,1.22.54.08.04.17.08.22.16.09.15-.03.34-.12.49-.41.71-.11,1.68.5,2.22.62.54,1.48.72,2.3.73,1.1,0,2.23-.28,3.07-.99.84-.71,1.33-1.87,1.07-2.94-.11-.46-.36-.94-.19-1.39.1-.27.34-.46.58-.6.28-.16.6-.26.92-.21.6.11.95.74,1.08,1.34.18.86.08,1.76-.13,2.62-.24.97-.62,1.93-1.31,2.65-.75.78-1.81,1.2-2.87,1.44-1.88.43-4.14.36-5.74-.85-1.42-1.08-1.99-3.14-1.38-4.81ZM906.85,184.98c.12.1.12.28.1.44-.14.98-.8,1.86-1.69,2.28-.16.07-.33.14-.53.18-1.03.25-2.43.09-2.69-1.03-.06-.26-.02-.55.16-.75.18-.21.48-.29.75-.36,1.15-.28,2.3-.55,3.45-.8.15-.03.33-.06.45.04ZM901.65,183.91c-2.32-.14-4.53-2.87-4.31-5.18.22-2.26,1.89-4.11,4.61-4.85,1.28-.32,2.81-.28,4.3.5,2.96,1.55,3.56,4.86,1.27,7.29-1.58,1.68-3.6,2.38-5.87,2.24ZM895.62,178.23c-.59-.12-1.18-.23-1.77-.33-.62-.11-.75-.32-.51-.91.5-1.23.91-1.37,2-.67.41.27.77.62,1.01.81.23.9-.08,1.23-.73,1.1ZM916.81,176.53c-.72,1.43-1.37,2.9-2.19,4.28-.54.91-1.57.73-2.41.52-.72-.19-1.39-.63-2.04-1.02-.15-.09-.16-.45-.17-.69,0-.12.12-.25.18-.37.59-1.07.6-1.08,1.66-.54.64.33,1.19.35,1.64-.3.38-.55.78-1.1,1.16-1.65.25-.36.15-.65-.21-.86-.74-.43-1.49-.85-2.23-1.29-.47-.27-.78-.1-1.03.33-.21.36-.45.7-.7,1.1-.36-.17-.64-.28-.9-.43-.81-.48-.98-1.05-.68-1.95.62-1.9,2.54-2.16,3.7-1.38,1.25.84,2.49,1.71,3.73,2.57.61.43.83.98.48,1.69ZM940,163.14c12.02-3.2,24.04-6.39,36.07-9.57,1.06-.28,2.12-.54,3.19-.77.3-.06.69-.08.94.06,1.56.89,3.09,1.82,4.62,2.75.11.07.19.19.4.41-.42.15-.71.28-1.02.36-15.15,4.23-30.29,8.46-45.44,12.67-6.44,1.79-12.9,3.53-19.34,5.3-.61.17-1.14.13-1.65-.23-.46-.32-.92-.63-1.39-.94-1.16-.77-2.32-1.53-3.48-2.3-.11-.07-.21-.16-.48-.36.58-.16,1.02-.28,1.45-.4,8.71-2.33,17.41-4.68,26.12-7ZM892.78,174.46c-.82-.29-1.45-.82-1.8-1.64-.89-2.1-1.21-4.32-.69-6.5.73-3.02,2.15-5.69,5.33-6.84,1.53-.55,3.11-.96,4.69-1.35,1.89-.46,3.62.13,5.31.96,2.4,1.17,4.4,2.75,5.38,5.31.63,1.64.92,3.37.68,5.14-.06.44-.11,1.04-.7,1.04-.59,0-.55-.61-.62-1.02-.17-.99-.27-1.98-.45-2.97-.71-3.74-3.22-6.14-6.99-6.7-4.99-.75-9.56,2.05-10.87,6.68-.38,1.35-.4,2.71-.2,4.07,0,.08.02.16.03.24,0,.01,0,.02,0,.03.04.23.08.46.13.7.02.1.06.19.11.28.58,1.82,1.64,2.55,1.64,2.55-.41,0-.72.1-.97,0ZM895.11,174.67c-.48-.99-.59-2.16-.33-3.22.37-1.51,1.42-2.81,2.73-3.66,1.04-.67,2.26-1.08,3.5-1.07,1.23.01,2.43.43,3.47,1.1,1.03.66,1.9,1.56,2.64,2.55.29.39.57.81.66,1.28.1.48-.02,1.02-.41,1.32-.5.38-1.26.21-1.72-.21-.46-.42-.7-1.03-.93-1.62-.23-.58-.47-1.19-.95-1.6-.63-.55-1.56-.64-2.39-.54-1.73.22-3.35,1.22-4.34,2.66-.18.26-.34.56-.32.87.03.48.46.82.71,1.23.14.23.22.5.24.78.02.32-.06.64-.24.9-.28.41-.98.72-1.45.45-.36-.2-.69-.85-.87-1.21ZM898.18,171.9c.17-.37.5-.65.83-.9.75-.55,1.62-.99,2.55-.99s1.9.54,2.17,1.43c.04.14.06.3-.01.42-.05.07-.13.12-.21.16-.5.26-1.04.42-1.58.57-.19.05-.38.11-.57.16-.45.12-.9.25-1.35.37-.86.23-2.42.1-1.82-1.22ZM876.74,183.35s0,.04,0,.11c1.4-1.04,3.26-2.35,4.88-3.29.08-.05.16-.11.24-.16.05-.03.36-.19.76-.38,0,0,0,0,0,0,1.84-.93,4.74-2.5,7.21-3.36.04-.06,2.02-.78,3.19-.6,0,0-1.75,4.67-1.35,6.2,0,0,0,0,0,0l-.43.15s0,0,0,0l-.88.3s0,0,0,0l-3.71,1.26s0,0,0,0l-1.4.48s0,0,0,0l-1.61.55s0,0,0,0l-.94.32s0,0,0,0l-3.73,1.27s0,0,0,0l-.78.27s0,0,0,0l-1.58.54s0,0,0,0l-.98.33s0,0,0,0l-.96.33h0s-.01-.04-.01-.04c-.17-.6-.32-1.17-.46-1.73,0,0-.14-.06.01-.31.02-.08.05-.16.1-.2.1-.09.2-.17.3-.26.06-.06.13-.12.21-.18.06-.05.14-.11.22-.18.57-.48,1.14-.95,1.71-1.42ZM860.01,194.96c-1.7.49-3.73-.07-4.26-2.14-.37-1.44.75-3.46,2.24-3.9,1.52-.45,3.64.67,4.07,2.15.48,1.63-.48,3.45-2.05,3.89ZM874.88,196.74c.45,1.7-.69,3.8-2.32,4.25-1.68.48-3.64-.8-4.16-2.71-.59-1.34.64-3.3,2.36-3.75,1.72-.45,3.7.59,4.13,2.2ZM871.34,192.87c-.77.79-1.83.91-2.86.83-2.6-.2-5.69-2.77-4.76-6.53.58-2.36,4.08-4.7,7.15-3.01.61.33,1.25.69,1.71,1.18.35.37.44.98.65,1.49.84,2.49-.26,4.37-1.9,6.05ZM896.18,192.94c-.51-1.51-.82-3-.78-4.57.01-.39.09-.79.23-1.15.18-.46.66-.62,1.04-.41.28.15.64.62.59.88-.31,1.73-.23,3.37.71,4.91,1.14,1.85,2.74,3.13,4.72,3.99,4.82,2.1,9.3-.77,11.17-4.19,1.17-2.13,1.38-4.25.54-6.51-.4-1.06-.77-2.13-1.16-3.2,1.01-.2,1.62.01,2.06.9,1.72,3.43,1.95,7.24-.67,10.58-1.78,2.27-4.04,3.82-6.86,4.66-3.78,1.12-10-1.18-11.6-5.89Z"/>
        </g>
      </g>
    </g>
  </g>
</svg>